<svg width="90" height="90" viewBox="0 0 90 90" fill="none" xmlns="http://www.w3.org/2000/svg">
<g clip-path="url(#clip0_180_1441)">
<path d="M58.2899 12.4911C58.2899 12.4911 44.0083 6.88031 30.3499 14.7989C16.6915 22.7173 10.1301 39.0092 4.47004 52.0483C-1.19006 65.0875 2.63296 78.6175 13.3941 85.0381C24.1552 91.4587 31.1181 82.6299 45.9717 82.6045C60.8253 82.5791 64.8825 84.8952 76.9839 76.527C89.0853 68.1588 90.7624 47.6458 80.6228 32.1507C70.4832 16.6556 58.2899 12.4911 58.2899 12.4911Z" fill="#117D5A"/>
<path d="M58.2899 12.4911C58.2899 12.4911 44.0083 6.88031 30.3499 14.7989C16.6915 22.7173 10.1301 39.0092 4.47004 52.0483C-1.19006 65.0875 2.63296 78.6175 13.3941 85.0381C24.1552 91.4587 31.1181 82.6299 45.9717 82.6045C60.8253 82.5791 64.8825 84.8952 76.9839 76.527C89.0853 68.1588 90.7624 47.6458 80.6228 32.1507C70.4832 16.6556 58.2899 12.4911 58.2899 12.4911Z" fill="#AEF9B5"/>
<path d="M87.8123 82.4409H1.77124" stroke="#263238" stroke-width="0.212" stroke-miterlimit="10" stroke-linecap="round" stroke-linejoin="round"/>
<path d="M9.45472 59.6851H9.04846V82.33H9.45472V59.6851Z" fill="#B8B8B8"/>
<path d="M10.7085 57.5141H10.3022V82.33H10.7085V57.5141Z" fill="#B8B8B8"/>
<path d="M11.9625 57.5141H11.5563V82.33H11.9625V57.5141Z" fill="#B8B8B8"/>
<path d="M9.02922 59.6563C9.02922 59.6563 8.76804 59.0816 7.82754 59.0294C6.88704 58.9772 6.15552 59.5519 6.15552 59.5519C6.15552 59.5519 6.99144 59.4997 7.3572 59.6565C7.72296 59.8133 8.19312 60.1268 8.19312 60.1268C8.19312 60.1268 7.87956 60.388 7.67058 60.9105C7.4616 61.4331 7.14804 62.4258 7.14804 62.4258C7.14804 62.4258 8.14074 61.6943 8.4021 61.2241C8.66328 60.7539 9.02904 60.4926 9.02904 60.4926C9.02904 60.4926 9.18582 61.0673 9.08124 61.4853C8.97666 61.9032 8.92446 62.5302 8.92446 62.5302C8.92446 62.5302 9.96936 62.1644 9.76038 60.8582C9.55158 59.5517 9.02922 59.6563 9.02922 59.6563Z" fill="#117D5A"/>
<path d="M10.8057 63.3136C10.8057 63.3136 10.5445 62.7389 9.60403 62.6867C8.66353 62.6345 7.93201 63.2092 7.93201 63.2092C7.93201 63.2092 8.76793 63.157 9.13369 63.3138C9.49945 63.4706 9.96961 63.784 9.96961 63.784C9.96961 63.784 9.65605 64.0452 9.44707 64.5677C9.23809 65.0902 8.92453 66.0829 8.92453 66.0829C8.92453 66.0829 9.91723 65.3514 10.1784 64.8813C10.4396 64.4111 10.8053 64.1497 10.8053 64.1497C10.8053 64.1497 10.9621 64.7245 10.8575 65.1424C10.753 65.5604 10.7008 66.1873 10.7008 66.1873C10.7008 66.1873 11.7457 65.8216 11.5367 64.5153C11.3282 63.2091 10.8057 63.3136 10.8057 63.3136Z" fill="#117D5A"/>
<path d="M8.66349 64.9857C8.66349 64.9857 8.40232 64.411 7.46182 64.3588C6.52132 64.3066 5.78979 64.8813 5.78979 64.8813C5.78979 64.8813 6.62571 64.8291 6.99147 64.9859C7.35723 65.1427 7.82739 65.456 7.82739 65.456C7.82739 65.456 7.51383 65.7172 7.30485 66.2398C7.09587 66.7623 6.78231 67.755 6.78231 67.755C6.78231 67.755 7.77501 67.0235 8.03619 66.5533C8.29737 66.0832 8.66314 65.8218 8.66314 65.8218C8.66314 65.8218 8.81991 66.3965 8.71533 66.8145C8.61075 67.2325 8.55855 67.8596 8.55855 67.8596C8.55855 67.8596 9.60345 67.4938 9.39447 66.1876C9.18549 64.8813 8.66349 64.9857 8.66349 64.9857Z" fill="#117D5A"/>
<path d="M12.056 71.4592C12.056 71.4592 11.5372 71.3649 11.0539 71.9853C10.5704 72.6058 10.6167 73.3812 10.6167 73.3812C10.6167 73.3812 10.9787 72.7827 11.2602 72.6063C11.5417 72.4299 11.9807 72.2564 11.9807 72.2564C11.9807 72.2564 12.0108 72.5959 12.2698 72.9879C12.5288 73.38 13.0609 74.0674 13.0609 74.0674C13.0609 74.0674 13.0314 73.0381 12.833 72.6351C12.6347 72.2321 12.6294 71.8568 12.6294 71.8568C12.6294 71.8568 13.0983 72.0228 13.3354 72.2933C13.5725 72.5638 13.9778 72.8981 13.9778 72.8981C13.9778 72.8981 14.2241 72.0071 13.2285 71.5289C12.2329 71.051 12.056 71.4592 12.056 71.4592Z" fill="#117D5A"/>
<path d="M12.2234 70.7565C12.2234 70.7565 12.0576 71.2569 12.6044 71.8223C13.1513 72.3876 13.9256 72.4501 13.9256 72.4501C13.9256 72.4501 13.3836 72.008 13.2483 71.7045C13.1129 71.4011 13.0026 70.9422 13.0026 70.9422C13.0026 70.9422 13.3428 70.9599 13.7672 70.7581C14.1917 70.5563 14.9466 70.1256 14.9466 70.1256C14.9466 70.1256 13.9233 70.0111 13.4965 70.1511C13.0697 70.2912 12.6975 70.244 12.6975 70.244C12.6975 70.244 12.9273 69.8028 13.2283 69.6059C13.5294 69.409 13.917 69.0542 13.917 69.0542C13.917 69.0542 13.069 68.6859 12.4565 69.605C11.8439 70.5243 12.2234 70.7565 12.2234 70.7565Z" fill="#117D5A"/>
<path d="M6.99854 72.3239C6.99854 72.3239 6.83276 72.8243 7.3796 73.3897C7.92644 73.9551 8.7008 74.0175 8.7008 74.0175C8.7008 74.0175 8.15882 73.5755 8.02346 73.272C7.8881 72.9685 7.77758 72.5097 7.77758 72.5097C7.77758 72.5097 8.11796 72.5273 8.54222 72.3255C8.96666 72.1238 9.72158 71.693 9.72158 71.693C9.72158 71.693 8.69828 71.5785 8.2715 71.7186C7.84472 71.8586 7.47248 71.8115 7.47248 71.8115C7.47248 71.8115 7.70234 71.3703 8.0033 71.1734C8.30426 70.9764 8.69198 70.6217 8.69198 70.6217C8.69198 70.6217 7.844 70.2534 7.23146 71.1725C6.6191 72.0917 6.99854 72.3239 6.99854 72.3239Z" fill="#117D5A"/>
<path d="M11.6132 74.2843C11.6132 74.2843 11.4475 74.7847 11.9943 75.3501C12.5411 75.9155 13.3155 75.9779 13.3155 75.9779C13.3155 75.9779 12.7733 75.5358 12.6382 75.2324C12.5028 74.9289 12.3923 74.4701 12.3923 74.4701C12.3923 74.4701 12.7327 74.4877 13.1569 74.2859C13.5814 74.0841 14.3363 73.6534 14.3363 73.6534C14.3363 73.6534 13.313 73.5389 12.8862 73.679C12.4594 73.819 12.0872 73.7718 12.0872 73.7718C12.0872 73.7718 12.317 73.3307 12.618 73.1337C12.9191 72.9368 13.3067 72.582 13.3067 72.582C13.3067 72.582 12.4587 72.2138 11.8462 73.1328C11.2336 74.0521 11.6132 74.2843 11.6132 74.2843Z" fill="#117D5A"/>
<path d="M11.6939 65.508C11.6939 65.508 11.4327 64.9333 10.4922 64.8811C9.55171 64.8289 8.82019 65.4036 8.82019 65.4036C8.82019 65.4036 9.65611 65.3514 10.0219 65.5082C10.3876 65.665 10.8578 65.9784 10.8578 65.9784C10.8578 65.9784 10.5442 66.2396 10.3353 66.7621C10.1263 67.2846 9.81271 68.2773 9.81271 68.2773C9.81271 68.2773 10.8054 67.5458 11.0666 67.0757C11.3278 66.6055 11.6935 66.3441 11.6935 66.3441C11.6935 66.3441 11.8503 66.9189 11.7457 67.3368C11.6411 67.7548 11.589 68.3819 11.589 68.3819C11.589 68.3819 12.6339 68.0162 12.4249 66.7099C12.2164 65.4036 11.6939 65.508 11.6939 65.508Z" fill="#117D5A"/>
<path d="M9.79053 59.5993C9.79053 59.5993 9.38499 60.0832 9.74409 60.954C10.1032 61.8249 10.9375 62.2364 10.9375 62.2364C10.9375 62.2364 10.5293 61.5048 10.5127 61.1074C10.4961 60.7098 10.5757 60.1503 10.5757 60.1503C10.5757 60.1503 10.9467 60.3203 11.5083 60.2832C12.0697 60.2459 13.1006 60.0999 13.1006 60.0999C13.1006 60.0999 12.0121 59.5205 11.4752 59.4879C10.9382 59.4554 10.5446 59.2385 10.5446 59.2385C10.5446 59.2385 10.9953 58.8488 11.4174 58.7625C11.8395 58.6763 12.4275 58.4526 12.4275 58.4526C12.4275 58.4526 11.6463 57.6681 10.5584 58.4207C9.47049 59.1731 9.79053 59.5993 9.79053 59.5993Z" fill="#117D5A"/>
<path d="M11.2012 63.309C11.2012 63.309 10.7956 63.7928 11.1547 64.6636C11.5138 65.5345 12.3481 65.946 12.3481 65.946C12.3481 65.946 11.9399 65.2144 11.9233 64.817C11.9068 64.4194 11.9863 63.8599 11.9863 63.8599C11.9863 63.8599 12.3573 64.0299 12.9189 63.9926C13.4805 63.9553 14.5112 63.8094 14.5112 63.8094C14.5112 63.8094 13.4227 63.2299 12.8858 63.1974C12.3489 63.1648 11.9552 62.9477 11.9552 62.9477C11.9552 62.9477 12.4059 62.5582 12.828 62.4718C13.2501 62.3856 13.8382 62.1618 13.8382 62.1618C13.8382 62.1618 13.057 61.3772 11.9691 62.13C10.8813 62.8829 11.2012 63.309 11.2012 63.309Z" fill="#117D5A"/>
<path d="M12.066 65.1379C12.066 65.1379 11.6605 65.6218 12.0196 66.4926C12.3787 67.3634 13.213 67.7749 13.213 67.7749C13.213 67.7749 12.8048 67.0436 12.7882 66.646C12.7716 66.2483 12.8512 65.6889 12.8512 65.6889C12.8512 65.6889 13.2222 65.8588 13.7838 65.8217C14.3452 65.7845 15.3761 65.6385 15.3761 65.6385C15.3761 65.6385 14.2876 65.0591 13.7507 65.0265C13.2137 64.9939 12.8201 64.7768 12.8201 64.7768C12.8201 64.7768 13.2708 64.3873 13.6929 64.3009C14.115 64.2147 14.703 63.991 14.703 63.991C14.703 63.991 13.9218 63.2065 12.8339 63.9591C11.7462 64.7119 12.066 65.1379 12.066 65.1379Z" fill="#117D5A"/>
<path d="M10.0157 58.8721C10.0157 58.8721 10.5816 58.5922 10.6032 57.6507C10.6248 56.7089 10.0265 55.9966 10.0265 55.9966C10.0265 55.9966 10.1059 56.8304 9.96115 57.201C9.81643 57.5716 9.51835 58.0519 9.51835 58.0519C9.51835 58.0519 9.24709 57.747 8.71807 57.5553C8.18905 57.3634 7.18663 57.0824 7.18663 57.0824C7.18663 57.0824 7.95001 58.0508 8.42863 58.2965C8.90707 58.5424 9.18013 58.8993 9.18013 58.8993C9.18013 58.8993 8.61079 59.0746 8.18959 58.9839C7.76839 58.893 7.14001 58.8613 7.14001 58.8613C7.14001 58.8613 7.53961 59.8938 8.83831 59.6425C10.1372 59.3909 10.0157 58.8721 10.0157 58.8721Z" fill="#117D5A"/>
<path d="M6.39473 72.8281C6.39473 72.8281 5.81153 72.5864 5.08847 73.1903C4.36559 73.7942 4.22339 74.7134 4.22339 74.7134C4.22339 74.7134 4.79867 74.1045 5.17289 73.9695C5.54711 73.8343 6.10475 73.7425 6.10475 73.7425C6.10475 73.7425 6.05399 74.1473 6.25793 74.6719C6.46187 75.1964 6.91043 76.1358 6.91043 76.1358C6.91043 76.1358 7.13651 74.9237 7.00637 74.4017C6.87623 73.8797 6.96515 73.4392 6.96515 73.4392C6.96515 73.4392 7.47203 73.7522 7.68101 74.129C7.88999 74.5057 8.27987 74.9996 8.27987 74.9996C8.27987 74.9996 8.79377 74.019 7.74941 73.2072C6.70523 72.395 6.39473 72.8281 6.39473 72.8281Z" fill="#117D5A"/>
<path d="M12.0344 69.4632C12.0344 69.4632 12.6003 69.1833 12.6219 68.2417C12.6435 67.3 12.0452 66.5877 12.0452 66.5877C12.0452 66.5877 12.1246 67.4215 11.9799 67.7923C11.8352 68.1631 11.5371 68.6431 11.5371 68.6431C11.5371 68.6431 11.2658 68.3384 10.7368 68.1465C10.2078 67.9546 9.20537 67.6737 9.20537 67.6737C9.20537 67.6737 9.96875 68.6421 10.4472 68.8878C10.9256 69.1336 11.1987 69.4906 11.1987 69.4906C11.1987 69.4906 10.6293 69.6659 10.2081 69.5752C9.78695 69.4843 9.15857 69.4526 9.15857 69.4526C9.15857 69.4526 9.55817 70.4851 10.8569 70.2336C12.1559 69.9821 12.0344 69.4632 12.0344 69.4632Z" fill="#117D5A"/>
<path d="M6.8866 72.4299C6.8866 72.4299 7.45252 72.15 7.47412 71.2084C7.49572 70.2666 6.8974 69.5544 6.8974 69.5544C6.8974 69.5544 6.97678 70.3881 6.83206 70.7588C6.68734 71.1294 6.38926 71.6096 6.38926 71.6096C6.38926 71.6096 6.118 71.3047 5.58898 71.1128C5.05996 70.9209 4.05754 70.64 4.05754 70.64C4.05754 70.64 4.82092 71.6084 5.29936 71.8542C5.7778 72.1001 6.05086 72.4571 6.05086 72.4571C6.05086 72.4571 5.48152 72.6324 5.06032 72.5417C4.63912 72.4508 4.01074 72.4191 4.01074 72.4191C4.01074 72.4191 4.41034 73.4516 5.70904 73.2003C7.0081 72.9488 6.8866 72.4299 6.8866 72.4299Z" fill="#117D5A"/>
<path d="M9.61104 76.6082C9.61104 76.6082 9.44526 77.1086 9.9921 77.674C10.5389 78.2394 11.3133 78.3018 11.3133 78.3018C11.3133 78.3018 10.7713 77.8598 10.636 77.5565C10.5006 77.253 10.3901 76.7942 10.3901 76.7942C10.3901 76.7942 10.7305 76.8118 11.1547 76.61C11.5792 76.4082 12.3341 75.9775 12.3341 75.9775C12.3341 75.9775 11.3108 75.863 10.884 76.0031C10.4572 76.1431 10.085 76.0959 10.085 76.0959C10.085 76.0959 10.3148 75.6548 10.6158 75.4578C10.9169 75.2609 11.3045 74.9061 11.3045 74.9061C11.3045 74.9061 10.4565 74.5379 9.84396 75.4569C9.23142 76.376 9.61104 76.6082 9.61104 76.6082Z" fill="#117D5A"/>
<path d="M9.0071 77.1124C9.0071 77.1124 8.4239 76.8709 7.70102 77.4746C6.97814 78.0785 6.83594 78.9978 6.83594 78.9978C6.83594 78.9978 7.41122 78.3888 7.78544 78.2538C8.15966 78.1186 8.7173 78.0267 8.7173 78.0267C8.7173 78.0267 8.66654 78.4317 8.87048 78.956C9.07442 79.4805 9.52298 80.4199 9.52298 80.4199C9.52298 80.4199 9.74906 79.2078 9.61892 78.6858C9.48878 78.1638 9.5777 77.7234 9.5777 77.7234C9.5777 77.7234 10.0846 78.0364 10.2936 78.4131C10.5025 78.7899 10.8924 79.2838 10.8924 79.2838C10.8924 79.2838 11.4063 78.3031 10.362 77.4913C9.3176 76.6795 9.0071 77.1124 9.0071 77.1124Z" fill="#117D5A"/>
<path d="M9.49909 76.7142C9.49909 76.7142 10.065 76.4343 10.0866 75.4928C10.1082 74.5512 9.50989 73.8387 9.50989 73.8387C9.50989 73.8387 9.58927 74.6725 9.44455 75.0431C9.29983 75.4137 9.00175 75.894 9.00175 75.894C9.00175 75.894 8.73049 75.5891 8.20147 75.3974C7.67245 75.2055 6.67003 74.9245 6.67003 74.9245C6.67003 74.9245 7.43341 75.8929 7.91203 76.1386C8.39047 76.3845 8.66353 76.7414 8.66353 76.7414C8.66353 76.7414 8.09419 76.9167 7.67299 76.826C7.25179 76.7351 6.62341 76.7034 6.62341 76.7034C6.62341 76.7034 7.02301 77.7359 8.32171 77.4846C9.62041 77.2332 9.49909 76.7142 9.49909 76.7142Z" fill="#117D5A"/>
<path d="M11.4396 71.906C11.4396 71.906 11.2738 72.4064 11.8206 72.9717C12.3675 73.5371 13.1418 73.5996 13.1418 73.5996C13.1418 73.5996 12.5999 73.1575 12.4645 72.8542C12.3291 72.5507 12.2186 72.0919 12.2186 72.0919C12.2186 72.0919 12.559 72.1095 12.9833 71.9078C13.4077 71.706 14.1626 71.2752 14.1626 71.2752C14.1626 71.2752 13.1393 71.1608 12.7125 71.3008C12.2858 71.4408 11.9135 71.3937 11.9135 71.3937C11.9135 71.3937 12.1434 70.9525 12.4443 70.7556C12.7455 70.5587 13.133 70.2039 13.133 70.2039C13.133 70.2039 12.285 69.8356 11.6725 70.7547C11.0601 71.6738 11.4396 71.906 11.4396 71.906Z" fill="#117D5A"/>
<path d="M10.8358 72.4101C10.8358 72.4101 10.2526 72.1686 9.52975 72.7723C8.80687 73.3762 8.66467 74.2954 8.66467 74.2954C8.66467 74.2954 9.23995 73.6865 9.61417 73.5515C9.98839 73.4163 10.546 73.3243 10.546 73.3243C10.546 73.3243 10.4953 73.7292 10.6992 74.2537C10.9032 74.7782 11.3517 75.7176 11.3517 75.7176C11.3517 75.7176 11.5778 74.5055 11.4477 73.9835C11.3175 73.4615 11.4064 73.021 11.4064 73.021C11.4064 73.021 11.9133 73.3341 12.1223 73.7108C12.3313 74.0875 12.7212 74.5815 12.7212 74.5815C12.7212 74.5815 13.2351 73.6008 12.1907 72.789C11.1463 71.977 10.8358 72.4101 10.8358 72.4101Z" fill="#117D5A"/>
<path d="M11.3278 72.0119C11.3278 72.0119 11.8937 71.732 11.9153 70.7904C11.9369 69.8487 11.3386 69.1364 11.3386 69.1364C11.3386 69.1364 11.4179 69.9702 11.2732 70.341C11.1285 70.7116 10.8304 71.1918 10.8304 71.1918C10.8304 71.1918 10.5592 70.8869 10.0301 70.6952C9.50112 70.5033 8.4987 70.2224 8.4987 70.2224C8.4987 70.2224 9.26208 71.1908 9.74052 71.4365C10.219 71.6823 10.492 72.0393 10.492 72.0393C10.492 72.0393 9.92268 72.2146 9.50148 72.1239C9.08028 72.033 8.4519 72.0013 8.4519 72.0013C8.4519 72.0013 8.8515 73.0338 10.1502 72.7825C11.4493 72.5307 11.3278 72.0119 11.3278 72.0119Z" fill="#117D5A"/>
<path d="M14.4692 73.8316C14.4692 73.8316 15.0352 73.5517 15.0568 72.6101C15.0784 71.6684 14.48 70.9561 14.48 70.9561C14.48 70.9561 14.5594 71.7899 14.4147 72.1607C14.27 72.5313 13.9719 73.0115 13.9719 73.0115C13.9719 73.0115 13.7006 72.7068 13.1716 72.5149C12.6426 72.323 11.6402 72.0421 11.6402 72.0421C11.6402 72.0421 12.4036 73.0105 12.882 73.2563C13.3604 73.5022 13.6335 73.8592 13.6335 73.8592C13.6335 73.8592 13.0642 74.0345 12.643 73.9438C12.2218 73.8529 11.5934 73.8212 11.5934 73.8212C11.5934 73.8212 11.993 74.8537 13.2917 74.6024C14.5907 74.3504 14.4692 73.8316 14.4692 73.8316Z" fill="#117D5A"/>
<path d="M8.67054 70.3907C8.67054 70.3907 8.50476 70.8911 9.0516 71.4565C9.59844 72.0219 10.3728 72.0843 10.3728 72.0843C10.3728 72.0843 9.83082 71.6422 9.69546 71.3389C9.5601 71.0355 9.44958 70.5766 9.44958 70.5766C9.44958 70.5766 9.78996 70.5943 10.2142 70.3925C10.6387 70.1907 11.3936 69.76 11.3936 69.76C11.3936 69.76 10.3703 69.6455 9.9435 69.7855C9.51672 69.9256 9.14448 69.8784 9.14448 69.8784C9.14448 69.8784 9.37434 69.4372 9.6753 69.2403C9.97644 69.0434 10.364 68.6886 10.364 68.6886C10.364 68.6886 9.516 68.3203 8.90346 69.2394C8.2911 70.1585 8.67054 70.3907 8.67054 70.3907Z" fill="#117D5A"/>
<path d="M8.06667 70.8949C8.06667 70.8949 7.48347 70.6533 6.76059 71.2571C6.03771 71.8608 5.89551 72.7802 5.89551 72.7802C5.89551 72.7802 6.47079 72.1713 6.84501 72.0363C7.21923 71.9011 7.77687 71.8093 7.77687 71.8093C7.77687 71.8093 7.72611 72.2143 7.93005 72.7386C8.13399 73.2631 8.58255 74.2026 8.58255 74.2026C8.58255 74.2026 8.80863 72.9903 8.67849 72.4685C8.54835 71.9465 8.63727 71.506 8.63727 71.506C8.63727 71.506 9.14415 71.819 9.35313 72.1957C9.56211 72.5725 9.95199 73.0664 9.95199 73.0664C9.95199 73.0664 10.4659 72.0858 9.42153 71.274C8.37717 70.4618 8.06667 70.8949 8.06667 70.8949Z" fill="#117D5A"/>
<path d="M8.5586 70.4967C8.5586 70.4967 9.12452 70.2168 9.14612 69.2752C9.16772 68.3335 8.5694 67.6212 8.5694 67.6212C8.5694 67.6212 8.64878 68.455 8.50406 68.8258C8.35934 69.1964 8.06126 69.6766 8.06126 69.6766C8.06126 69.6766 7.79 69.3719 7.26098 69.18C6.73196 68.9881 5.72954 68.7072 5.72954 68.7072C5.72954 68.7072 6.49292 69.6756 6.97136 69.9214C7.4498 70.1671 7.72286 70.5243 7.72286 70.5243C7.72286 70.5243 7.15352 70.6996 6.73232 70.6089C6.31112 70.518 5.68274 70.4863 5.68274 70.4863C5.68274 70.4863 6.08234 71.5188 7.38104 71.2673C8.67992 71.0155 8.5586 70.4967 8.5586 70.4967Z" fill="#117D5A"/>
<path d="M11.9259 75.317C11.9259 75.317 11.4072 75.2227 10.9239 75.8432C10.4404 76.4636 10.4867 77.2391 10.4867 77.2391C10.4867 77.2391 10.8486 76.6406 11.1302 76.4642C11.4117 76.2878 11.8507 76.1142 11.8507 76.1142C11.8507 76.1142 11.8808 76.4537 12.1398 76.8458C12.3988 77.2378 12.9309 77.9252 12.9309 77.9252C12.9309 77.9252 12.9014 76.896 12.703 76.493C12.5046 76.0899 12.4994 75.7146 12.4994 75.7146C12.4994 75.7146 12.9683 75.8806 13.2054 76.1511C13.4424 76.4217 13.8478 76.7559 13.8478 76.7559C13.8478 76.7559 14.094 75.8649 13.0985 75.3867C12.1029 74.909 11.9259 75.317 11.9259 75.317Z" fill="#117D5A"/>
<path d="M13.848 76.7564C13.848 76.7564 13.6822 77.2568 14.229 77.8221C14.7759 78.3875 15.5502 78.45 15.5502 78.45C15.5502 78.45 15.0083 78.0081 14.8729 77.7046C14.7375 77.4011 14.627 76.9423 14.627 76.9423C14.627 76.9423 14.9674 76.9599 15.3917 76.7582C15.8161 76.5564 16.571 76.1256 16.571 76.1256C16.571 76.1256 15.5477 76.0112 15.1209 76.1512C14.6942 76.2912 14.3219 76.2441 14.3219 76.2441C14.3219 76.2441 14.5518 75.8029 14.8527 75.606C15.1539 75.4091 15.5414 75.0543 15.5414 75.0543C15.5414 75.0543 14.6934 74.686 14.0809 75.6051C13.4684 76.5242 13.848 76.7564 13.848 76.7564Z" fill="#117D5A"/>
<path d="M13.244 77.2605C13.244 77.2605 12.6608 77.019 11.938 77.6227C11.2151 78.2266 11.0729 79.1459 11.0729 79.1459C11.0729 79.1459 11.6482 78.5369 12.0224 78.4019C12.3966 78.2667 12.9542 78.1748 12.9542 78.1748C12.9542 78.1748 12.9035 78.5798 13.1074 79.1041C13.3114 79.6286 13.7599 80.568 13.7599 80.568C13.7599 80.568 13.986 79.3557 13.8559 78.8339C13.7257 78.3119 13.8146 77.8713 13.8146 77.8713C13.8146 77.8713 14.3215 78.1843 14.5305 78.561C14.7395 78.9378 15.1294 79.4317 15.1294 79.4317C15.1294 79.4317 15.6433 78.4511 14.5989 77.6393C13.5544 76.8275 13.244 77.2605 13.244 77.2605Z" fill="#117D5A"/>
<path d="M13.7359 76.8624C13.7359 76.8624 14.3018 76.5825 14.3234 75.641C14.345 74.6992 13.7469 73.9869 13.7469 73.9869C13.7469 73.9869 13.8263 74.8207 13.6816 75.1915C13.5368 75.5623 13.2388 76.0424 13.2388 76.0424C13.2388 76.0424 12.9675 75.7376 12.4385 75.5457C11.9094 75.3539 10.907 75.0729 10.907 75.0729C10.907 75.0729 11.6704 76.0413 12.1489 76.287C12.6273 76.5329 12.9003 76.8898 12.9003 76.8898C12.9003 76.8898 12.331 77.0651 11.9098 76.9744C11.4886 76.8835 10.8602 76.8518 10.8602 76.8518C10.8602 76.8518 11.2598 77.8843 12.5585 77.633C13.8572 77.3814 13.7359 76.8624 13.7359 76.8624Z" fill="#117D5A"/>
<path d="M2.99516 73.734C2.99516 73.734 2.47658 73.6397 1.9931 74.2601C1.50962 74.8806 1.55588 75.656 1.55588 75.656C1.55588 75.656 1.91786 75.0575 2.19938 74.8811C2.4809 74.7047 2.91992 74.5314 2.91992 74.5314C2.91992 74.5314 2.94998 74.8709 3.209 75.2629C3.46802 75.6549 4.0001 76.3424 4.0001 76.3424C4.0001 76.3424 3.97058 75.3131 3.77222 74.9101C3.57386 74.5071 3.56864 74.1318 3.56864 74.1318C3.56864 74.1318 4.03754 74.2977 4.2746 74.5683C4.51166 74.8388 4.91702 75.1731 4.91702 75.1731C4.91702 75.1731 5.16326 74.2821 4.16768 73.8038C3.1721 73.3257 2.99516 73.734 2.99516 73.734Z" fill="#117D5A"/>
<path d="M4.91721 75.1732C4.91721 75.1732 4.75143 75.6736 5.29827 76.2389C5.84511 76.8043 6.61947 76.8668 6.61947 76.8668C6.61947 76.8668 6.07731 76.4247 5.94213 76.1214C5.80677 75.8179 5.69625 75.3591 5.69625 75.3591C5.69625 75.3591 6.03645 75.3767 6.46089 75.175C6.88533 74.9732 7.64043 74.5424 7.64043 74.5424C7.64043 74.5424 6.61713 74.428 6.19035 74.568C5.76357 74.708 5.39133 74.6609 5.39133 74.6609C5.39133 74.6609 5.62119 74.2197 5.92215 74.0228C6.22329 73.8259 6.61083 73.4711 6.61083 73.4711C6.61083 73.4711 5.76285 73.1028 5.15031 74.0219C4.53777 74.941 4.91721 75.1732 4.91721 75.1732Z" fill="#117D5A"/>
<path d="M4.31325 75.6774C4.31325 75.6774 3.73005 75.4359 3.00717 76.0396C2.28429 76.6433 2.14209 77.5628 2.14209 77.5628C2.14209 77.5628 2.71737 76.9538 3.09159 76.8188C3.46581 76.6836 4.02345 76.5917 4.02345 76.5917C4.02345 76.5917 3.97269 76.9965 4.17663 77.521C4.38057 78.0455 4.82913 78.9849 4.82913 78.9849C4.82913 78.9849 5.05521 77.7727 4.92507 77.2508C4.79493 76.7288 4.88385 76.2884 4.88385 76.2884C4.88385 76.2884 5.39073 76.6014 5.59971 76.9781C5.80869 77.3549 6.19857 77.8488 6.19857 77.8488C6.19857 77.8488 6.71247 76.8681 5.66811 76.0563C4.62375 75.2444 4.31325 75.6774 4.31325 75.6774Z" fill="#117D5A"/>
<path d="M4.80512 75.2792C4.80512 75.2792 5.37104 74.9993 5.39264 74.0578C5.41424 73.116 4.81592 72.4037 4.81592 72.4037C4.81592 72.4037 4.8953 73.2375 4.75058 73.6083C4.60586 73.9789 4.30778 74.4592 4.30778 74.4592C4.30778 74.4592 4.03652 74.1542 3.5075 73.9625C2.97848 73.7707 1.97606 73.4897 1.97606 73.4897C1.97606 73.4897 2.73944 74.4581 3.21806 74.7038C3.69668 74.9495 3.96956 75.3066 3.96956 75.3066C3.96956 75.3066 3.40022 75.4819 2.97902 75.3912C2.55782 75.3003 1.92944 75.2686 1.92944 75.2686C1.92944 75.2686 2.32904 76.3011 3.62774 76.0498C4.92644 75.7985 4.80512 75.2792 4.80512 75.2792Z" fill="#117D5A"/>
<path d="M6.23625 73.9591C6.23625 73.9591 5.71749 73.8648 5.23419 74.4853C4.75071 75.1057 4.79697 75.8812 4.79697 75.8812C4.79697 75.8812 5.15895 75.2827 5.44047 75.1063C5.72199 74.9299 6.16101 74.7563 6.16101 74.7563C6.16101 74.7563 6.19107 75.0958 6.45009 75.4879C6.70911 75.8799 7.24119 76.5673 7.24119 76.5673C7.24119 76.5673 7.21167 75.5381 7.01331 75.1351C6.81495 74.732 6.80973 74.3567 6.80973 74.3567C6.80973 74.3567 7.27863 74.5227 7.51569 74.7932C7.75275 75.0638 8.15811 75.398 8.15811 75.398C8.15811 75.398 8.40435 74.507 7.40877 74.0288C6.41319 73.5509 6.23625 73.9591 6.23625 73.9591Z" fill="#117D5A"/>
<path d="M8.15828 75.3984C8.15828 75.3984 7.9925 75.8988 8.53934 76.4642C9.08618 77.0295 9.86054 77.092 9.86054 77.092C9.86054 77.092 9.31856 76.6501 9.1832 76.3466C9.04784 76.0431 8.93732 75.5843 8.93732 75.5843C8.93732 75.5843 9.2777 75.602 9.70196 75.4002C10.1264 75.1984 10.8813 74.7677 10.8813 74.7677C10.8813 74.7677 9.85802 74.6532 9.43124 74.7932C9.00446 74.9333 8.63222 74.8861 8.63222 74.8861C8.63222 74.8861 8.86208 74.4449 9.16304 74.248C9.46418 74.0511 9.85172 73.6963 9.85172 73.6963C9.85172 73.6963 9.00374 73.328 8.3912 74.2471C7.77866 75.166 8.15828 75.3984 8.15828 75.3984Z" fill="#117D5A"/>
<path d="M7.55434 75.9024C7.55434 75.9024 6.97114 75.6608 6.24826 76.2645C5.52538 76.8684 5.38318 77.7877 5.38318 77.7877C5.38318 77.7877 5.95846 77.1787 6.33268 77.0437C6.7069 76.9086 7.26454 76.8166 7.26454 76.8166C7.26454 76.8166 7.21378 77.2216 7.41772 77.7459C7.62166 78.2704 8.07022 79.2099 8.07022 79.2099C8.07022 79.2099 8.2963 77.9976 8.16616 77.4757C8.03602 76.9537 8.12494 76.5133 8.12494 76.5133C8.12494 76.5133 8.63182 76.8263 8.8408 77.203C9.04978 77.5798 9.43966 78.0737 9.43966 78.0737C9.43966 78.0737 9.95356 77.0931 8.9092 76.2813C7.86466 75.4695 7.55434 75.9024 7.55434 75.9024Z" fill="#117D5A"/>
<path d="M8.04627 75.5044C8.04627 75.5044 8.61219 75.2247 8.63379 74.2829C8.65539 73.3413 8.05707 72.6289 8.05707 72.6289C8.05707 72.6289 8.13645 73.4627 7.99173 73.8335C7.84701 74.2043 7.54893 74.6843 7.54893 74.6843C7.54893 74.6843 7.27767 74.3796 6.74865 74.1877C6.21963 73.9958 5.21721 73.7148 5.21721 73.7148C5.21721 73.7148 5.98059 74.6832 6.45903 74.9291C6.93747 75.1748 7.21053 75.5319 7.21053 75.5319C7.21053 75.5319 6.64119 75.7073 6.21999 75.6165C5.79879 75.5256 5.17041 75.494 5.17041 75.494C5.17041 75.494 5.57001 76.5264 6.86871 76.2752C8.16741 76.0239 8.04627 75.5044 8.04627 75.5044Z" fill="#117D5A"/>
<path d="M10.0828 77.8766C10.0828 77.8766 9.56405 77.7823 9.08075 78.4028C8.59727 79.0232 8.64353 79.7987 8.64353 79.7987C8.64353 79.7987 9.00551 79.2002 9.28703 79.0238C9.56855 78.8474 10.0076 78.6738 10.0076 78.6738C10.0076 78.6738 10.0376 79.0133 10.2966 79.4054C10.5557 79.7974 11.0877 80.485 11.0877 80.485C11.0877 80.485 11.0582 79.4558 10.8599 79.0527C10.6615 78.6497 10.6563 78.2744 10.6563 78.2744C10.6563 78.2744 11.1252 78.4404 11.3622 78.7109C11.5993 78.9815 12.0047 79.3157 12.0047 79.3157C12.0047 79.3157 12.2509 78.4247 11.2553 77.9465C10.2597 77.4684 10.0828 77.8766 10.0828 77.8766Z" fill="#117D5A"/>
<path d="M12.0049 79.3158C12.0049 79.3158 11.8391 79.8162 12.386 80.3816C12.9328 80.947 13.7072 81.0094 13.7072 81.0094C13.7072 81.0094 13.1652 80.5673 13.0298 80.264C12.8945 79.9606 12.7841 79.5017 12.7841 79.5017C12.7841 79.5017 13.1243 79.5194 13.5488 79.3176C13.9732 79.1158 14.7283 78.6851 14.7283 78.6851C14.7283 78.6851 13.705 78.5706 13.2782 78.7106C12.8514 78.8507 12.4792 78.8035 12.4792 78.8035C12.4792 78.8035 12.7091 78.3623 13.01 78.1654C13.3112 77.9685 13.6987 77.6137 13.6987 77.6137C13.6987 77.6137 12.8507 77.2454 12.2382 78.1645C11.6253 79.0836 12.0049 79.3158 12.0049 79.3158Z" fill="#117D5A"/>
<path d="M11.319 79.0838C11.319 79.0838 10.7358 78.8422 10.0129 79.4459C9.29003 80.0496 9.14783 80.9691 9.14783 80.9691C9.14783 80.9691 9.72311 80.3601 10.0973 80.2251C10.4715 80.09 11.0292 79.998 11.0292 79.998C11.0292 79.998 10.9784 80.403 11.1824 80.9273C11.3863 81.4518 11.8349 82.3913 11.8349 82.3913C11.8349 82.3913 12.0609 81.1791 11.9308 80.6571C11.8007 80.1351 11.8896 79.6947 11.8896 79.6947C11.8896 79.6947 12.3965 80.0077 12.6054 80.3844C12.8144 80.7612 13.2043 81.2551 13.2043 81.2551C13.2043 81.2551 13.7182 80.2745 12.6738 79.4627C11.6295 78.6507 11.319 79.0838 11.319 79.0838Z" fill="#117D5A"/>
<path d="M11.8927 79.4219C11.8927 79.4219 12.4586 79.1421 12.4802 78.2005C12.5018 77.2587 11.9035 76.5464 11.9035 76.5464C11.9035 76.5464 11.9829 77.3802 11.8382 77.751C11.6934 78.1216 11.3954 78.6019 11.3954 78.6019C11.3954 78.6019 11.1241 78.2971 10.5951 78.1052C10.0661 77.9134 9.06365 77.6324 9.06365 77.6324C9.06365 77.6324 9.82703 78.6008 10.3055 78.8465C10.7839 79.0924 11.057 79.4493 11.057 79.4493C11.057 79.4493 10.4876 79.6246 10.0664 79.5339C9.64523 79.443 9.01685 79.4113 9.01685 79.4113C9.01685 79.4113 9.42113 80.4668 10.7151 80.1925C12.3416 79.8473 11.9622 79.4021 11.8927 79.4219Z" fill="#117D5A"/>
<path d="M8.16743 79.0763C8.16743 79.0763 8.05079 79.4283 8.43545 79.826C8.82011 80.2236 9.36479 80.2675 9.36479 80.2675C9.36479 80.2675 8.98355 79.9566 8.88833 79.7432C8.79311 79.5297 8.71553 79.2069 8.71553 79.2069C8.71553 79.2069 8.95493 79.2194 9.25337 79.0773C9.55181 78.9355 10.083 78.6324 10.083 78.6324C10.083 78.6324 9.36317 78.5517 9.06311 78.6504C8.76287 78.7488 8.50097 78.7157 8.50097 78.7157C8.50097 78.7157 8.66261 78.4054 8.87429 78.2668C9.08597 78.1282 9.35867 77.8787 9.35867 77.8787C9.35867 77.8787 8.76233 77.6197 8.33141 78.2661C7.90049 78.913 8.16743 79.0763 8.16743 79.0763Z" fill="#117D5A"/>
<path d="M7.74263 79.4308C7.74263 79.4308 7.33241 79.2609 6.82391 79.6855C6.31541 80.1103 6.21533 80.7569 6.21533 80.7569C6.21533 80.7569 6.61997 80.3287 6.88313 80.2336C7.14647 80.1386 7.53869 80.074 7.53869 80.074C7.53869 80.074 7.50305 80.3587 7.64651 80.7277C7.78997 81.0967 8.10551 81.7573 8.10551 81.7573C8.10551 81.7573 8.26445 80.9047 8.17301 80.5375C8.08157 80.1703 8.14403 79.8605 8.14403 79.8605C8.14403 79.8605 8.50061 80.0806 8.64749 80.3456C8.79455 80.6105 9.06869 80.9579 9.06869 80.9579C9.06869 80.9579 9.43013 80.2682 8.69555 79.6972C7.96115 79.1263 7.74263 79.4308 7.74263 79.4308Z" fill="#117D5A"/>
<path d="M8.08871 79.151C8.08871 79.151 8.48687 78.9543 8.50199 78.2919C8.51711 77.6295 8.09645 77.1284 8.09645 77.1284C8.09645 77.1284 8.15225 77.7148 8.05055 77.9756C7.94867 78.2363 7.73915 78.5741 7.73915 78.5741C7.73915 78.5741 7.54835 78.3597 7.17629 78.2247C6.80423 78.0897 6.09917 77.8921 6.09917 77.8921C6.09917 77.8921 6.63611 78.5732 6.97271 78.7462C7.30931 78.9192 7.50137 79.1703 7.50137 79.1703C7.50137 79.1703 7.10087 79.2936 6.80459 79.2297C6.50831 79.1658 6.06641 79.1435 6.06641 79.1435C6.06641 79.1435 6.34739 79.8698 7.26089 79.6928C8.17403 79.5159 8.08871 79.151 8.08871 79.151Z" fill="#117D5A"/>
<path d="M11.6159 57.0215C11.6159 57.0215 11.4993 57.3735 11.8839 57.7712C12.2686 58.1688 12.8133 58.2127 12.8133 58.2127C12.8133 58.2127 12.432 57.9018 12.3368 57.6884C12.2416 57.4749 12.1638 57.1521 12.1638 57.1521C12.1638 57.1521 12.4032 57.1646 12.7017 57.0225C13.0001 56.8807 13.5313 56.5776 13.5313 56.5776C13.5313 56.5776 12.8115 56.4969 12.5114 56.5956C12.2112 56.694 11.9493 56.6609 11.9493 56.6609C11.9493 56.6609 12.1109 56.3506 12.3228 56.212C12.5345 56.0734 12.8072 55.8239 12.8072 55.8239C12.8072 55.8239 12.2108 55.5649 11.7799 56.2113C11.349 56.8582 11.6159 57.0215 11.6159 57.0215Z" fill="#117D5A"/>
<path d="M11.1912 57.376C11.1912 57.376 10.781 57.2061 10.2725 57.6307C9.76396 58.0555 9.66406 58.7021 9.66406 58.7021C9.66406 58.7021 10.0687 58.2738 10.3319 58.1788C10.5952 58.0838 10.9874 58.0191 10.9874 58.0191C10.9874 58.0191 10.9518 58.3039 11.0952 58.6729C11.2387 59.0417 11.5542 59.7025 11.5542 59.7025C11.5542 59.7025 11.7132 58.8498 11.6217 58.4826C11.5303 58.1154 11.5928 57.8057 11.5928 57.8057C11.5928 57.8057 11.9493 58.0258 12.0962 58.2908C12.2433 58.5557 12.5174 58.9031 12.5174 58.9031C12.5174 58.9031 12.8789 58.2134 12.1443 57.6424C11.4095 57.0714 11.1912 57.376 11.1912 57.376Z" fill="#117D5A"/>
<path d="M11.5372 57.0961C11.5372 57.0961 11.9352 56.8992 11.9505 56.2369C11.9656 55.5745 11.5449 55.0734 11.5449 55.0734C11.5449 55.0734 11.6007 55.6599 11.499 55.9207C11.3972 56.1813 11.1876 56.5192 11.1876 56.5192C11.1876 56.5192 10.9968 56.3048 10.6248 56.1698C10.2527 56.0348 9.54765 55.8372 9.54765 55.8372C9.54765 55.8372 10.0846 56.5183 10.4212 56.6913C10.7578 56.8642 10.9499 57.1153 10.9499 57.1153C10.9499 57.1153 10.5494 57.2386 10.2531 57.1747C9.95679 57.1108 9.51489 57.0885 9.51489 57.0885C9.51489 57.0885 9.79587 57.8148 10.7094 57.6379C11.6225 57.4609 11.5372 57.0961 11.5372 57.0961Z" fill="#117D5A"/>
<path d="M14.5085 66.3782C14.5085 66.3782 14.3919 66.7303 14.7765 67.1279C15.1612 67.5255 15.7059 67.5694 15.7059 67.5694C15.7059 67.5694 15.3246 67.2586 15.2294 67.0451C15.1342 66.8316 15.0564 66.5089 15.0564 66.5089C15.0564 66.5089 15.2958 66.5213 15.5943 66.3793C15.8927 66.2372 16.4239 65.9343 16.4239 65.9343C16.4239 65.9343 15.7041 65.8537 15.404 65.9523C15.1038 66.0508 14.8419 66.0176 14.8419 66.0176C14.8419 66.0176 15.0035 65.7073 15.2154 65.5687C15.427 65.4301 15.6997 65.1806 15.6997 65.1806C15.6997 65.1806 15.1034 64.9216 14.6725 65.5682C14.2416 66.2149 14.5085 66.3782 14.5085 66.3782Z" fill="#117D5A"/>
<path d="M14.0837 66.7328C14.0837 66.7328 13.6735 66.5628 13.165 66.9875C12.6565 67.4123 12.5564 68.0588 12.5564 68.0588C12.5564 68.0588 12.961 67.6306 13.2242 67.5356C13.4874 67.4405 13.8798 67.3759 13.8798 67.3759C13.8798 67.3759 13.8441 67.6607 13.9876 68.0297C14.131 68.3985 14.4466 69.0593 14.4466 69.0593C14.4466 69.0593 14.6055 68.2066 14.5141 67.8394C14.4226 67.4722 14.4851 67.1624 14.4851 67.1624C14.4851 67.1624 14.8417 67.3826 14.9886 67.6475C15.1356 67.9125 15.4098 68.2599 15.4098 68.2599C15.4098 68.2599 15.7712 67.5701 15.0366 66.9992C14.302 66.4282 14.0837 66.7328 14.0837 66.7328Z" fill="#117D5A"/>
<path d="M14.4296 66.4528C14.4296 66.4528 14.8278 66.2561 14.8429 65.5937C14.858 64.9313 14.4374 64.4302 14.4374 64.4302C14.4374 64.4302 14.4932 65.0166 14.3915 65.2774C14.2896 65.5381 14.0801 65.8759 14.0801 65.8759C14.0801 65.8759 13.8893 65.6616 13.5172 65.5266C13.1452 65.3916 12.4401 65.1939 12.4401 65.1939C12.4401 65.1939 12.977 65.875 13.3136 66.048C13.6502 66.221 13.8423 66.4721 13.8423 66.4721C13.8423 66.4721 13.4418 66.5954 13.1455 66.5315C12.8492 66.4676 12.4073 66.4453 12.4073 66.4453C12.4073 66.4453 12.6883 67.1716 13.6018 66.9946C14.5151 66.8177 14.4296 66.4528 14.4296 66.4528Z" fill="#117D5A"/>
<path d="M9.87878 52.6298V59.6208H29.8321V52.6298H9.87878ZM28.9183 58.9663H10.7925V53.2842H28.9181V58.9663H28.9183Z" fill="white" stroke="#263238" stroke-width="0.212" stroke-miterlimit="10" stroke-linecap="round" stroke-linejoin="round"/>
<path d="M11.6244 51.4895V52.6046H12.4335V53.4092H11.6244V54.3508H14.4156V51.4895H11.6244Z" fill="#263238" stroke="#263238" stroke-width="0.212" stroke-miterlimit="10" stroke-linecap="round" stroke-linejoin="round"/>
<path d="M13.3858 57.0222H10.8755V57.2476H13.3858V57.0222Z" fill="white" stroke="#263238" stroke-width="0.212" stroke-miterlimit="10" stroke-linecap="round" stroke-linejoin="round"/>
<path d="M12.8707 56.1531H11.165V58.052H12.8707V56.1531Z" fill="#263238" stroke="#263238" stroke-width="0.212" stroke-miterlimit="10" stroke-linecap="round" stroke-linejoin="round"/>
<path d="M18.2088 56.6144H13.3099V61.5315H18.2088V56.6144Z" fill="#263238" stroke="#263238" stroke-width="0.212" stroke-miterlimit="10" stroke-linecap="round" stroke-linejoin="round"/>
<path d="M18.5308 57.8059V58.921H19.3399V59.7256H18.5308V60.6672H21.3222V57.8059H18.5308Z" fill="#263238" stroke="#263238" stroke-width="0.212" stroke-miterlimit="10" stroke-linecap="round" stroke-linejoin="round"/>
<path d="M9.96228 62.3625V65.3433L18.7882 66.6733H21.2175L31.0628 65.3433V62.3625H9.96228Z" fill="white" stroke="#263238" stroke-width="0.212" stroke-miterlimit="10" stroke-linecap="round" stroke-linejoin="round"/>
<path d="M21.198 66.6732H18.7882V82.3114H21.198V66.6732Z" fill="white" stroke="#263238" stroke-width="0.212" stroke-miterlimit="10" stroke-linecap="round" stroke-linejoin="round"/>
<path d="M20.598 66.6732H19.3882V82.3114H20.598V66.6732Z" fill="#263238" stroke="#263238" stroke-width="0.212" stroke-miterlimit="10" stroke-linecap="round" stroke-linejoin="round"/>
<path d="M31.0628 62.3455V54.9331H30.6041L30.1156 62.3455H31.0628Z" fill="white" stroke="#263238" stroke-width="0.212" stroke-miterlimit="10" stroke-linecap="round" stroke-linejoin="round"/>
<path d="M30.4864 55.6835H29.8319V55.9513H30.4864V55.6835Z" fill="white" stroke="#263238" stroke-width="0.212" stroke-miterlimit="10" stroke-linecap="round" stroke-linejoin="round"/>
<g opacity="0.3">
<path d="M17.0119 35.3732C20.1629 32.2221 20.1629 27.1132 17.0119 23.9622C13.8608 20.8111 8.75193 20.8111 5.60088 23.9622C2.44982 27.1132 2.44982 32.2221 5.60088 35.3732C8.75193 38.5242 13.8608 38.5242 17.0119 35.3732Z" stroke="black" stroke-width="0.212" stroke-miterlimit="10" stroke-linecap="round" stroke-linejoin="round"/>
<path d="M14.2574 35.8064C17.6477 34.1768 19.0751 30.1074 17.4456 26.7171C15.8161 23.3267 11.7467 21.8993 8.3563 23.5288C4.96595 25.1584 3.53853 29.2278 5.16806 32.6181C6.7976 36.0085 10.867 37.4359 14.2574 35.8064Z" stroke="black" stroke-width="0.212" stroke-miterlimit="10" stroke-linecap="round" stroke-linejoin="round"/>
<path d="M8.20312 29.6678H11.3065L13.5232 25.5003" stroke="black" stroke-width="0.212" stroke-miterlimit="10" stroke-linecap="round" stroke-linejoin="round"/>
</g>
<g opacity="0.3">
<path d="M79.6674 82.4409L77.1695 46.6072H74.6378L72.1401 82.4409H79.6674Z" fill="white" stroke="black" stroke-width="0.212" stroke-miterlimit="10" stroke-linecap="round" stroke-linejoin="round"/>
<path d="M74.0148 55.5493C74.5989 54.7442 75.5806 53.227 75.5806 52.1255C75.5806 50.8164 74.6998 50.0982 74.4088 49.8964L74.0148 55.5493Z" fill="black" stroke="black" stroke-width="0.212" stroke-miterlimit="10" stroke-linecap="round" stroke-linejoin="round"/>
<path d="M74.6762 69.7273C74.5352 67.6144 73.8804 65.9554 73.36 64.94L72.6051 75.7693C73.3125 74.8618 74.863 72.5304 74.6762 69.7273Z" fill="black" stroke="black" stroke-width="0.212" stroke-miterlimit="10" stroke-linecap="round" stroke-linejoin="round"/>
<path d="M77.7868 55.4631C77.2378 56.6834 76.2329 59.2363 76.7256 60.625C77.1241 61.748 77.8488 62.9576 78.3641 63.7444L77.7868 55.4631Z" fill="black" stroke="black" stroke-width="0.212" stroke-miterlimit="10" stroke-linecap="round" stroke-linejoin="round"/>
<path d="M78.8684 70.9789C78.3041 72.2798 76.786 76.0026 76.786 78.4074C76.786 80.2227 77.6963 81.627 78.3983 82.4408H79.6673L78.8684 70.9789Z" fill="black" stroke="black" stroke-width="0.212" stroke-miterlimit="10" stroke-linecap="round" stroke-linejoin="round"/>
<path d="M73.9363 36.9783C73.9363 36.9783 72.5327 36.6275 71.6555 36.8028C70.7782 36.9783 69.6088 37.5046 68.9069 38.6743C68.2051 39.8439 67.211 42.3002 67.5618 42.5925C67.9126 42.8848 68.6144 41.7737 68.6144 41.7737C68.6144 41.7737 70.4274 41.1889 71.3045 40.1947C72.1819 39.2006 73.4683 37.6216 73.4683 37.6216L73.9363 36.9783Z" fill="white" stroke="black" stroke-width="0.212" stroke-miterlimit="10" stroke-linecap="round" stroke-linejoin="round"/>
<path d="M73.2345 37.2121C73.2345 37.2121 71.597 37.7384 70.6029 38.6157C69.6087 39.4931 69.1992 40.6625 69.1992 40.6625C69.1992 40.6625 70.4859 40.0192 71.363 39.2006C72.2403 38.3817 73.2345 37.2121 73.2345 37.2121Z" fill="white" stroke="black" stroke-width="0.212" stroke-miterlimit="10" stroke-linecap="round" stroke-linejoin="round"/>
<path d="M74.4626 36.6858L73.2345 33.8787C73.2345 33.8787 73.6438 33.1184 72.942 32.8845C72.2402 32.6507 72.0649 33.3524 72.1817 33.6449C72.2987 33.9372 72.591 34.1127 72.591 34.1127L73.2343 37.2121L74.4626 36.6858Z" fill="white" stroke="black" stroke-width="0.212" stroke-miterlimit="10" stroke-linecap="round" stroke-linejoin="round"/>
<path d="M77.6206 36.9783C77.6206 36.9783 79.0242 36.6275 79.9014 36.8028C80.7787 36.9783 81.9482 37.5046 82.65 38.6743C83.3518 39.8439 84.3459 42.3002 83.9951 42.5925C83.6443 42.8848 82.9425 41.7737 82.9425 41.7737C82.9425 41.7737 81.1295 41.1889 80.2524 40.1947C79.3752 39.2006 78.0886 37.6216 78.0886 37.6216L77.6206 36.9783Z" fill="white" stroke="black" stroke-width="0.212" stroke-miterlimit="10" stroke-linecap="round" stroke-linejoin="round"/>
<path d="M78.3223 37.2121C78.3223 37.2121 79.9597 37.7384 80.9539 38.6157C81.948 39.4931 82.3575 40.6625 82.3575 40.6625C82.3575 40.6625 81.0709 40.0192 80.1937 39.2006C79.3166 38.3817 78.3223 37.2121 78.3223 37.2121Z" fill="white" stroke="black" stroke-width="0.212" stroke-miterlimit="10" stroke-linecap="round" stroke-linejoin="round"/>
<path d="M77.0944 36.6858L78.3225 33.8787C78.3225 33.8787 77.9132 33.1184 78.615 32.8845C79.3168 32.6507 79.4921 33.3524 79.3753 33.6449C79.2583 33.9372 78.966 34.1127 78.966 34.1127L78.3227 37.2121L77.0944 36.6858Z" fill="white" stroke="black" stroke-width="0.212" stroke-miterlimit="10" stroke-linecap="round" stroke-linejoin="round"/>
<path d="M79.499 39.2412C79.0724 37.535 77.5759 36.307 75.8187 36.2357C75.7899 36.2345 75.7609 36.2336 75.7316 36.2327C74.2669 36.1897 73.3838 36.7496 72.8671 37.3204C72.4824 37.745 72.2371 38.2777 72.1283 38.8402L71.1655 43.8143H80.6423L79.499 39.2412Z" fill="white" stroke="black" stroke-width="0.212" stroke-miterlimit="10" stroke-linecap="round" stroke-linejoin="round"/>
<path d="M75.9037 48.6388C79.0916 48.6388 81.676 47.1345 81.676 45.2788C81.676 43.4231 79.0916 41.9187 75.9037 41.9187C72.7158 41.9187 70.1315 43.4231 70.1315 45.2788C70.1315 47.1345 72.7158 48.6388 75.9037 48.6388Z" fill="white" stroke="black" stroke-width="0.212" stroke-miterlimit="10" stroke-linecap="round" stroke-linejoin="round"/>
<path d="M74.1993 39.639C74.1993 39.9459 74.003 40.1946 73.7607 40.1946C73.5184 40.1946 73.322 39.9459 73.322 39.639C73.322 39.3321 73.5184 39.0833 73.7607 39.0833C74.003 39.0835 74.1993 39.3323 74.1993 39.639Z" fill="black" stroke="black" stroke-width="0.212" stroke-miterlimit="10" stroke-linecap="round" stroke-linejoin="round"/>
<path d="M78.1762 39.639C78.1762 39.9459 77.9798 40.1946 77.7375 40.1946C77.4952 40.1946 77.2988 39.9459 77.2988 39.639C77.2988 39.3321 77.4952 39.0833 77.7375 39.0833C77.9798 39.0835 78.1762 39.3323 78.1762 39.639Z" fill="black" stroke="black" stroke-width="0.212" stroke-miterlimit="10" stroke-linecap="round" stroke-linejoin="round"/>
<path d="M74.4188 45.1071C74.4188 45.527 73.9737 45.8674 73.4247 45.8674C72.8757 45.8674 72.4305 45.527 72.4305 45.1071C72.4305 44.6871 72.8757 44.3467 73.4247 44.3467C73.9737 44.3469 74.4188 44.6873 74.4188 45.1071Z" fill="white" stroke="black" stroke-width="0.212" stroke-miterlimit="10" stroke-linecap="round" stroke-linejoin="round"/>
<path d="M79.0241 45.1071C79.0241 45.527 78.5789 45.8674 78.0299 45.8674C77.4809 45.8674 77.0358 45.527 77.0358 45.1071C77.0358 44.6871 77.4809 44.3467 78.0299 44.3467C78.5789 44.3469 79.0241 44.6873 79.0241 45.1071Z" fill="white" stroke="black" stroke-width="0.212" stroke-miterlimit="10" stroke-linecap="round" stroke-linejoin="round"/>
<path d="M75.8187 36.2357C75.8187 36.2357 75.9247 35.2821 75.2229 34.7557C74.5211 34.2294 74.0532 34.6387 74.2872 34.9312C74.5212 35.2237 74.8721 35.6331 74.8721 35.6331C74.8721 35.6331 73.5854 35.3407 73.5269 35.8671C73.4684 36.3934 74.9889 36.5104 74.9889 36.5104C74.9889 36.5104 75.7712 37.0138 75.8187 36.2357Z" fill="white" stroke="black" stroke-width="0.212" stroke-miterlimit="10" stroke-linecap="round" stroke-linejoin="round"/>
</g>
<g opacity="0.3">
<path d="M84.8192 82.4409H86.9083V34.5002H84.8192V82.4409Z" fill="white" stroke="black" stroke-width="0.212" stroke-miterlimit="10" stroke-linecap="round" stroke-linejoin="round"/>
<path d="M86.9363 35.4242H85.8066" stroke="black" stroke-width="0.212" stroke-miterlimit="10" stroke-linecap="round" stroke-linejoin="round"/>
<path d="M86.9364 36.6205H86.2719" stroke="black" stroke-width="0.212" stroke-miterlimit="10" stroke-linecap="round" stroke-linejoin="round"/>
<path d="M86.9363 37.8831H85.8066" stroke="black" stroke-width="0.212" stroke-miterlimit="10" stroke-linecap="round" stroke-linejoin="round"/>
<path d="M86.9364 39.0793H86.2719" stroke="black" stroke-width="0.212" stroke-miterlimit="10" stroke-linecap="round" stroke-linejoin="round"/>
<path d="M86.9363 40.3422H85.8066" stroke="black" stroke-width="0.212" stroke-miterlimit="10" stroke-linecap="round" stroke-linejoin="round"/>
<path d="M86.9364 41.5383H86.2719" stroke="black" stroke-width="0.212" stroke-miterlimit="10" stroke-linecap="round" stroke-linejoin="round"/>
<path d="M86.9363 42.801H85.8066" stroke="black" stroke-width="0.212" stroke-miterlimit="10" stroke-linecap="round" stroke-linejoin="round"/>
<path d="M86.9364 43.9971H86.2719" stroke="black" stroke-width="0.212" stroke-miterlimit="10" stroke-linecap="round" stroke-linejoin="round"/>
<path d="M86.9363 45.2599H85.8066" stroke="black" stroke-width="0.212" stroke-miterlimit="10" stroke-linecap="round" stroke-linejoin="round"/>
<path d="M86.9364 46.4561H86.2719" stroke="black" stroke-width="0.212" stroke-miterlimit="10" stroke-linecap="round" stroke-linejoin="round"/>
<path d="M86.9363 47.7189H85.8066" stroke="black" stroke-width="0.212" stroke-miterlimit="10" stroke-linecap="round" stroke-linejoin="round"/>
<path d="M86.9364 48.915H86.2719" stroke="black" stroke-width="0.212" stroke-miterlimit="10" stroke-linecap="round" stroke-linejoin="round"/>
<path d="M86.9363 50.1778H85.8066" stroke="black" stroke-width="0.212" stroke-miterlimit="10" stroke-linecap="round" stroke-linejoin="round"/>
<path d="M86.9364 51.3741H86.2719" stroke="black" stroke-width="0.212" stroke-miterlimit="10" stroke-linecap="round" stroke-linejoin="round"/>
<path d="M86.9363 52.6367H85.8066" stroke="black" stroke-width="0.212" stroke-miterlimit="10" stroke-linecap="round" stroke-linejoin="round"/>
<path d="M86.9364 53.833H86.2719" stroke="black" stroke-width="0.212" stroke-miterlimit="10" stroke-linecap="round" stroke-linejoin="round"/>
<path d="M86.9363 55.0956H85.8066" stroke="black" stroke-width="0.212" stroke-miterlimit="10" stroke-linecap="round" stroke-linejoin="round"/>
<path d="M86.9364 56.2917H86.2719" stroke="black" stroke-width="0.212" stroke-miterlimit="10" stroke-linecap="round" stroke-linejoin="round"/>
<path d="M86.9363 57.5544H85.8066" stroke="black" stroke-width="0.212" stroke-miterlimit="10" stroke-linecap="round" stroke-linejoin="round"/>
<path d="M86.9364 58.7507H86.2719" stroke="black" stroke-width="0.212" stroke-miterlimit="10" stroke-linecap="round" stroke-linejoin="round"/>
<path d="M86.9363 60.0134H85.8066" stroke="black" stroke-width="0.212" stroke-miterlimit="10" stroke-linecap="round" stroke-linejoin="round"/>
<path d="M86.9364 61.2097H86.2719" stroke="black" stroke-width="0.212" stroke-miterlimit="10" stroke-linecap="round" stroke-linejoin="round"/>
<path d="M86.9363 62.4724H85.8066" stroke="black" stroke-width="0.212" stroke-miterlimit="10" stroke-linecap="round" stroke-linejoin="round"/>
<path d="M86.9364 63.6687H86.2719" stroke="black" stroke-width="0.212" stroke-miterlimit="10" stroke-linecap="round" stroke-linejoin="round"/>
<path d="M86.9363 64.9313H85.8066" stroke="black" stroke-width="0.212" stroke-miterlimit="10" stroke-linecap="round" stroke-linejoin="round"/>
<path d="M86.9364 66.1275H86.2719" stroke="black" stroke-width="0.212" stroke-miterlimit="10" stroke-linecap="round" stroke-linejoin="round"/>
<path d="M86.9363 67.3902H85.8066" stroke="black" stroke-width="0.212" stroke-miterlimit="10" stroke-linecap="round" stroke-linejoin="round"/>
<path d="M86.9364 68.5865H86.2719" stroke="black" stroke-width="0.212" stroke-miterlimit="10" stroke-linecap="round" stroke-linejoin="round"/>
<path d="M86.9363 69.8492H85.8066" stroke="black" stroke-width="0.212" stroke-miterlimit="10" stroke-linecap="round" stroke-linejoin="round"/>
<path d="M86.9364 71.0455H86.2719" stroke="black" stroke-width="0.212" stroke-miterlimit="10" stroke-linecap="round" stroke-linejoin="round"/>
<path d="M86.9363 72.3082H85.8066" stroke="black" stroke-width="0.212" stroke-miterlimit="10" stroke-linecap="round" stroke-linejoin="round"/>
<path d="M86.9364 73.5044H86.2719" stroke="black" stroke-width="0.212" stroke-miterlimit="10" stroke-linecap="round" stroke-linejoin="round"/>
<path d="M86.9363 74.767H85.8066" stroke="black" stroke-width="0.212" stroke-miterlimit="10" stroke-linecap="round" stroke-linejoin="round"/>
<path d="M86.9364 75.9634H86.2719" stroke="black" stroke-width="0.212" stroke-miterlimit="10" stroke-linecap="round" stroke-linejoin="round"/>
<path d="M86.9363 77.2259H85.8066" stroke="black" stroke-width="0.212" stroke-miterlimit="10" stroke-linecap="round" stroke-linejoin="round"/>
<path d="M86.9364 78.4222H86.2719" stroke="black" stroke-width="0.212" stroke-miterlimit="10" stroke-linecap="round" stroke-linejoin="round"/>
<path d="M86.9363 79.6849H85.8066" stroke="black" stroke-width="0.212" stroke-miterlimit="10" stroke-linecap="round" stroke-linejoin="round"/>
<path d="M86.9364 80.8812H86.2719" stroke="black" stroke-width="0.212" stroke-miterlimit="10" stroke-linecap="round" stroke-linejoin="round"/>
</g>
<g opacity="0.3">
<path d="M22.9689 55.3495L20.9358 57.3824H43.6687V55.534" fill="white"/>
<path d="M22.9689 55.3495L20.9358 57.3824H43.6687V55.534" stroke="black" stroke-width="0.212" stroke-miterlimit="10" stroke-linecap="round" stroke-linejoin="round"/>
<path d="M22.9689 52.9963L20.9358 55.0294H43.6687V53.181" fill="white"/>
<path d="M22.9689 52.9963L20.9358 55.0294H43.6687V53.181" stroke="black" stroke-width="0.212" stroke-miterlimit="10" stroke-linecap="round" stroke-linejoin="round"/>
<path d="M22.9689 50.6433L20.9358 52.6764H43.6687V50.828" fill="white"/>
<path d="M22.9689 50.6433L20.9358 52.6764H43.6687V50.828" stroke="black" stroke-width="0.212" stroke-miterlimit="10" stroke-linecap="round" stroke-linejoin="round"/>
<path d="M22.9689 48.2903L20.9358 50.3234H43.6687V48.4748" fill="white"/>
<path d="M22.9689 48.2903L20.9358 50.3234H43.6687V48.4748" stroke="black" stroke-width="0.212" stroke-miterlimit="10" stroke-linecap="round" stroke-linejoin="round"/>
<path d="M22.9689 45.9375L20.9358 47.9706H43.6687V46.122" fill="white"/>
<path d="M22.9689 45.9375L20.9358 47.9706H43.6687V46.122" stroke="black" stroke-width="0.212" stroke-miterlimit="10" stroke-linecap="round" stroke-linejoin="round"/>
<path d="M22.9689 43.5845L20.9358 45.6174H43.6687V43.769" fill="white"/>
<path d="M22.9689 43.5845L20.9358 45.6174H43.6687V43.769" stroke="black" stroke-width="0.212" stroke-miterlimit="10" stroke-linecap="round" stroke-linejoin="round"/>
<path d="M22.9689 41.2315L20.9358 43.2644H43.6687V41.416" fill="white"/>
<path d="M22.9689 41.2315L20.9358 43.2644H43.6687V41.416" stroke="black" stroke-width="0.212" stroke-miterlimit="10" stroke-linecap="round" stroke-linejoin="round"/>
<path d="M22.9689 38.8785L20.9358 40.9115H43.6687V39.063" fill="white"/>
<path d="M22.9689 38.8785L20.9358 40.9115H43.6687V39.063" stroke="black" stroke-width="0.212" stroke-miterlimit="10" stroke-linecap="round" stroke-linejoin="round"/>
<path d="M22.9689 36.5255L20.9358 38.5586H43.6687V36.7101" fill="white"/>
<path d="M22.9689 36.5255L20.9358 38.5586H43.6687V36.7101" stroke="black" stroke-width="0.212" stroke-miterlimit="10" stroke-linecap="round" stroke-linejoin="round"/>
<path d="M22.9689 34.1725L20.9358 36.2056H43.6687V34.357" fill="white"/>
<path d="M22.9689 34.1725L20.9358 36.2056H43.6687V34.357" stroke="black" stroke-width="0.212" stroke-miterlimit="10" stroke-linecap="round" stroke-linejoin="round"/>
<path d="M22.9689 31.8195L20.9358 33.8526H43.6687V32.004" fill="white"/>
<path d="M22.9689 31.8195L20.9358 33.8526H43.6687V32.004" stroke="black" stroke-width="0.212" stroke-miterlimit="10" stroke-linecap="round" stroke-linejoin="round"/>
<path d="M22.9689 29.4665L20.9358 31.4994H43.6687V29.651" fill="white"/>
<path d="M22.9689 29.4665L20.9358 31.4994H43.6687V29.651" stroke="black" stroke-width="0.212" stroke-miterlimit="10" stroke-linecap="round" stroke-linejoin="round"/>
<path d="M22.9689 27.1136L20.9358 29.1466H43.6687V27.2981" fill="white"/>
<path d="M22.9689 27.1136L20.9358 29.1466H43.6687V27.2981" stroke="black" stroke-width="0.212" stroke-miterlimit="10" stroke-linecap="round" stroke-linejoin="round"/>
<path d="M22.9689 24.7606L20.9358 26.7935H43.6687V24.9451" fill="white"/>
<path d="M22.9689 24.7606L20.9358 26.7935H43.6687V24.9451" stroke="black" stroke-width="0.212" stroke-miterlimit="10" stroke-linecap="round" stroke-linejoin="round"/>
<path d="M22.9689 22.4075L20.9358 24.4406H43.6687V22.5922" fill="white"/>
<path d="M22.9689 22.4075L20.9358 24.4406H43.6687V22.5922" stroke="black" stroke-width="0.212" stroke-miterlimit="10" stroke-linecap="round" stroke-linejoin="round"/>
<path d="M22.9689 20.0545L20.9358 22.0876H43.6687V20.239" fill="white"/>
<path d="M22.9689 20.0545L20.9358 22.0876H43.6687V20.239" stroke="black" stroke-width="0.212" stroke-miterlimit="10" stroke-linecap="round" stroke-linejoin="round"/>
<path d="M22.9689 17.7016L20.9358 19.7347H43.6687V17.8861" fill="white"/>
<path d="M22.9689 17.7016L20.9358 19.7347H43.6687V17.8861" stroke="black" stroke-width="0.212" stroke-miterlimit="10" stroke-linecap="round" stroke-linejoin="round"/>
<path d="M22.9689 15.3486L20.9358 17.3816H43.6687V15.5331" fill="white"/>
<path d="M22.9689 15.3486L20.9358 17.3816H43.6687V15.5331" stroke="black" stroke-width="0.212" stroke-miterlimit="10" stroke-linecap="round" stroke-linejoin="round"/>
<path d="M22.9689 12.9958L20.9358 15.0287H43.6687V13.1803" fill="white"/>
<path d="M22.9689 12.9958L20.9358 15.0287H43.6687V13.1803" stroke="black" stroke-width="0.212" stroke-miterlimit="10" stroke-linecap="round" stroke-linejoin="round"/>
<path d="M45.8362 55.3493L43.8031 57.3822H66.536V55.5338" fill="white"/>
<path d="M45.8362 55.3493L43.8031 57.3822H66.536V55.5338" stroke="black" stroke-width="0.212" stroke-miterlimit="10" stroke-linecap="round" stroke-linejoin="round"/>
<path d="M45.8362 52.9962L43.8031 55.0293H66.536V53.1808" fill="white"/>
<path d="M45.8362 52.9962L43.8031 55.0293H66.536V53.1808" stroke="black" stroke-width="0.212" stroke-miterlimit="10" stroke-linecap="round" stroke-linejoin="round"/>
<path d="M45.8362 50.6432L43.8031 52.6763H66.536V50.8279" fill="white"/>
<path d="M45.8362 50.6432L43.8031 52.6763H66.536V50.8279" stroke="black" stroke-width="0.212" stroke-miterlimit="10" stroke-linecap="round" stroke-linejoin="round"/>
<path d="M45.8362 48.2902L43.8031 50.3233H66.536V48.4747" fill="white"/>
<path d="M45.8362 48.2902L43.8031 50.3233H66.536V48.4747" stroke="black" stroke-width="0.212" stroke-miterlimit="10" stroke-linecap="round" stroke-linejoin="round"/>
<path d="M45.8362 45.9373L43.8031 47.9704H66.536V46.1218" fill="white"/>
<path d="M45.8362 45.9373L43.8031 47.9704H66.536V46.1218" stroke="black" stroke-width="0.212" stroke-miterlimit="10" stroke-linecap="round" stroke-linejoin="round"/>
<path d="M45.8362 43.5844L43.8031 45.6173H66.536V43.7688" fill="white"/>
<path d="M45.8362 43.5844L43.8031 45.6173H66.536V43.7688" stroke="black" stroke-width="0.212" stroke-miterlimit="10" stroke-linecap="round" stroke-linejoin="round"/>
<path d="M45.8362 41.2313L43.8031 43.2642H66.536V41.4158" fill="white"/>
<path d="M45.8362 41.2313L43.8031 43.2642H66.536V41.4158" stroke="black" stroke-width="0.212" stroke-miterlimit="10" stroke-linecap="round" stroke-linejoin="round"/>
<path d="M45.8362 38.8784L43.8031 40.9113H66.536V39.0629" fill="white"/>
<path d="M45.8362 38.8784L43.8031 40.9113H66.536V39.0629" stroke="black" stroke-width="0.212" stroke-miterlimit="10" stroke-linecap="round" stroke-linejoin="round"/>
<path d="M45.8362 36.5253L43.8031 38.5584H66.536V36.7099" fill="white"/>
<path d="M45.8362 36.5253L43.8031 38.5584H66.536V36.7099" stroke="black" stroke-width="0.212" stroke-miterlimit="10" stroke-linecap="round" stroke-linejoin="round"/>
<path d="M45.8362 34.1723L43.8031 36.2054H66.536V34.3568" fill="white"/>
<path d="M45.8362 34.1723L43.8031 36.2054H66.536V34.3568" stroke="black" stroke-width="0.212" stroke-miterlimit="10" stroke-linecap="round" stroke-linejoin="round"/>
<path d="M45.8362 31.8193L43.8031 33.8524H66.536V32.0038" fill="white"/>
<path d="M45.8362 31.8193L43.8031 33.8524H66.536V32.0038" stroke="black" stroke-width="0.212" stroke-miterlimit="10" stroke-linecap="round" stroke-linejoin="round"/>
<path d="M45.8362 29.4664L43.8031 31.4993H66.536V29.6509" fill="white"/>
<path d="M45.8362 29.4664L43.8031 31.4993H66.536V29.6509" stroke="black" stroke-width="0.212" stroke-miterlimit="10" stroke-linecap="round" stroke-linejoin="round"/>
<path d="M45.8362 27.1135L43.8031 29.1464H66.536V27.298" fill="white"/>
<path d="M45.8362 27.1135L43.8031 29.1464H66.536V27.298" stroke="black" stroke-width="0.212" stroke-miterlimit="10" stroke-linecap="round" stroke-linejoin="round"/>
<path d="M45.8362 24.7605L43.8031 26.7934H66.536V24.945" fill="white"/>
<path d="M45.8362 24.7605L43.8031 26.7934H66.536V24.945" stroke="black" stroke-width="0.212" stroke-miterlimit="10" stroke-linecap="round" stroke-linejoin="round"/>
<path d="M45.8362 22.4073L43.8031 24.4404H66.536V22.592" fill="white"/>
<path d="M45.8362 22.4073L43.8031 24.4404H66.536V22.592" stroke="black" stroke-width="0.212" stroke-miterlimit="10" stroke-linecap="round" stroke-linejoin="round"/>
<path d="M45.8362 20.0543L43.8031 22.0874H66.536V20.2388" fill="white"/>
<path d="M45.8362 20.0543L43.8031 22.0874H66.536V20.2388" stroke="black" stroke-width="0.212" stroke-miterlimit="10" stroke-linecap="round" stroke-linejoin="round"/>
<path d="M45.8362 17.7014L43.8031 19.7345H66.536V17.8859" fill="white"/>
<path d="M45.8362 17.7014L43.8031 19.7345H66.536V17.8859" stroke="black" stroke-width="0.212" stroke-miterlimit="10" stroke-linecap="round" stroke-linejoin="round"/>
<path d="M45.8362 15.3484L43.8031 17.3814H66.536V15.5329" fill="white"/>
<path d="M45.8362 15.3484L43.8031 17.3814H66.536V15.5329" stroke="black" stroke-width="0.212" stroke-miterlimit="10" stroke-linecap="round" stroke-linejoin="round"/>
<path d="M45.8363 12.9955L43.8032 15.0284H66.5361V13.18" fill="white"/>
<path d="M45.8363 12.9955L43.8032 15.0284H66.5361V13.18" stroke="black" stroke-width="0.212" stroke-miterlimit="10" stroke-linecap="round" stroke-linejoin="round"/>
<path d="M24.0258 12.9288H65.7219" stroke="black" stroke-width="0.212" stroke-miterlimit="10" stroke-linecap="round" stroke-linejoin="round"/>
</g>
<path d="M50.1134 38.405C50.1134 38.405 49.6236 37.4663 49.1338 36.038C48.6441 34.6095 48.4401 34.8137 49.1747 33.6302C49.9093 32.4467 50.5623 30.6917 51.0928 31.0999C51.6234 31.508 51.6234 31.508 51.6234 31.508C51.6234 31.508 51.9499 30.7734 52.2765 30.2021C52.603 29.6307 54.4802 28.6105 54.3578 28.8144C54.2354 29.0186 53.9904 29.3042 53.9904 29.3042C53.9904 29.3042 55.9494 28.8553 57.7859 29.794C59.6224 30.7327 63.2138 34.2017 63.7853 36.2015C64.3566 38.2013 61.8672 40.6908 61.8672 40.6908C61.8672 40.6908 62.0305 40.8541 61.6631 41.1806C61.2957 41.5071 60.3572 42.0785 60.3572 42.0785L58.8063 42.5274L50.8888 41.1806L50.1134 38.405Z" fill="#263238" stroke="#263238" stroke-width="0.212" stroke-miterlimit="10" stroke-linecap="round" stroke-linejoin="round"/>
<path d="M51.6643 46.0776C51.6643 46.0776 44.0734 47.7918 43.9101 48.2816C43.7468 48.7713 41.0125 62.525 41.0125 62.525C41.0125 62.525 40.0738 63.3004 40.0738 63.4637C40.0738 63.6269 40.1146 63.9126 40.0738 64.0758C40.0329 64.2391 35.2172 66.6878 34.36 66.9735C33.503 67.2591 32.0337 67.7081 32.0337 67.7081L32.197 71.422C32.197 71.422 34.7681 71.5035 37.4618 70.9731C40.1553 70.4426 43.6244 69.5855 43.6244 69.5855C43.6244 69.5855 40.1555 78.156 39.7472 82.4412L64.969 82.4004L62.0305 68.9733C62.0305 68.9733 67.3769 51.9955 67.2953 51.1385C67.2138 50.2815 60.8062 47.6696 59.5411 47.0981C58.2759 46.5267 57.0515 46.3226 57.0515 46.3226L51.6643 46.0776Z" fill="#117D5A" stroke="#263238" stroke-width="0.212" stroke-miterlimit="10" stroke-linecap="round" stroke-linejoin="round"/>
<path d="M45.1211 54.8174C44.7076 56.3204 43.8708 59.3793 43.8708 60.0813C43.8708 60.9835 45.0383 64.4328 45.0383 64.4328L43.6244 69.5853" stroke="#263238" stroke-width="0.212" stroke-miterlimit="10" stroke-linecap="round" stroke-linejoin="round"/>
<path d="M45.5334 53.2431C45.5334 53.2431 45.3746 53.838 45.3151 54.0527" stroke="#263238" stroke-width="0.212" stroke-miterlimit="10" stroke-linecap="round" stroke-linejoin="round"/>
<path d="M40.5806 63.9552C40.5806 63.9552 43.287 64.0083 44.1361 65.0165" stroke="#263238" stroke-width="0.212" stroke-miterlimit="10" stroke-linecap="round" stroke-linejoin="round"/>
<path d="M42.4911 63.4775C42.4911 63.4775 43.7648 63.796 44.3485 64.4328" stroke="#263238" stroke-width="0.212" stroke-miterlimit="10" stroke-linecap="round" stroke-linejoin="round"/>
<path d="M50.9065 82.4229L50.0979 78.4572L48.9695 82.4262L50.9065 82.4229Z" fill="#263238" stroke="#263238" stroke-width="0.212" stroke-miterlimit="10" stroke-linecap="round" stroke-linejoin="round"/>
<path d="M61.1124 74.3774L54.8003 74.6226L54.8617 75.4193L59.5804 75.1741" stroke="#263238" stroke-width="0.212" stroke-miterlimit="10" stroke-linecap="round" stroke-linejoin="round"/>
<path d="M42.605 73.2744L46.4044 74.1323L46.1593 74.8678L42.4824 73.9485" stroke="#263238" stroke-width="0.212" stroke-miterlimit="10" stroke-linecap="round" stroke-linejoin="round"/>
<path d="M50.0997 55.4727C50.7659 56.9955 52.5742 59.9457 52.5742 59.9457C52.5742 59.9457 56.714 55.33 57.2376 54.4259C57.761 53.5217 58.4747 52.4748 58.4747 52.4748L57.4279 51.0948L59.1409 50.9045C59.1409 50.9045 59.0189 48.0656 58.9703 46.8626C57.9317 46.47 57.0515 46.3224 57.0515 46.3224L51.6643 46.0776C51.6643 46.0776 51.1036 46.2042 50.2844 46.3984C50.0574 46.7564 49.769 47.2363 49.5287 47.7165C49.0528 48.6682 48.7198 49.3821 48.7198 49.3821L50.1949 50.0483L48.6721 51.7138C48.6721 51.7138 49.4335 53.9501 50.0997 55.4727Z" fill="#117D5A" stroke="#263238" stroke-width="0.212" stroke-miterlimit="10" stroke-linecap="round" stroke-linejoin="round"/>
<path d="M51.9178 43.9454C51.9178 43.9454 51.5009 46.4042 51.2561 47.506C51.0113 48.608 51.1078 53.7689 51.9092 55.8724C52.2357 56.7294 52.3581 58.2803 52.3581 58.2803C52.3581 58.2803 55.5414 53.7094 56.5616 50.9341C57.5819 48.1589 57.8269 47.3428 57.8269 47.3428L58.5206 43.8329C58.5206 43.8329 56.9288 45.0164 55.5412 45.4247C54.1536 45.8327 51.9178 43.9454 51.9178 43.9454Z" fill="white" stroke="#263238" stroke-width="0.212" stroke-miterlimit="10" stroke-linecap="round" stroke-linejoin="round"/>
<path d="M55.3097 46.3599L57.8268 47.3427L58.759 43.1404L55.3097 46.3599Z" fill="#263238" stroke="#263238" stroke-width="0.212" stroke-miterlimit="10" stroke-linecap="round" stroke-linejoin="round"/>
<path d="M52.7253 34.7728C52.7253 34.7728 52.9294 35.9972 53.3783 36.4052C53.8272 36.8133 54.1946 37.0174 54.1946 36.895C54.1946 36.7726 54.1129 35.8748 54.1129 35.8748C54.1129 35.8748 54.9699 37.2624 55.9086 37.7522C56.8473 38.242 58.5205 38.6092 58.5205 38.6092C58.5205 38.6092 59.0919 40.2824 59.2551 40.3642C59.4184 40.4457 59.6225 40.2009 59.6225 40.2009C59.6225 40.2009 59.7858 39.6703 59.8673 39.5479C59.9488 39.4255 60.7651 39.0172 60.8875 40.2416C61.0099 41.4659 60.0712 42.4046 59.8264 42.4862C59.5816 42.5677 59.4184 42.8127 59.4184 42.8127C59.4184 42.8127 58.4797 44.3227 58.1532 44.7716C57.8266 45.2206 55.3779 46.7306 54.6025 46.8938C53.827 47.0571 53.0109 46.9347 52.4803 46.2001C51.9496 45.4655 50.8479 43.9147 50.6029 43.2209C50.3581 42.5272 50.1948 37.8746 50.1948 37.8746L52.1538 35.3035C52.1538 35.3035 51.9496 36.0789 52.2353 35.8339C52.5211 35.5889 52.7253 34.7728 52.7253 34.7728Z" fill="white" stroke="#263238" stroke-width="0.212" stroke-miterlimit="10" stroke-linecap="round" stroke-linejoin="round"/>
<path d="M51.5416 39.0988C51.5416 39.0988 52.0723 40.0375 53.2558 39.5069" stroke="#263238" stroke-width="0.212" stroke-miterlimit="10" stroke-linecap="round" stroke-linejoin="round"/>
<path d="M53.7455 40.5273C53.7455 40.5273 53.4598 41.6292 53.4598 41.874C53.4598 42.1188 53.6231 42.2821 53.9088 42.3638C54.1944 42.4455 54.7657 42.2006 54.7657 42.2006" stroke="#263238" stroke-width="0.212" stroke-miterlimit="10" stroke-linecap="round" stroke-linejoin="round"/>
<path d="M52.6843 42.9351C52.6843 42.9351 53.1333 43.6697 54.0311 43.7106C54.9289 43.7514 55.6635 43.3025 55.6635 43.3025" stroke="#263238" stroke-width="0.212" stroke-miterlimit="10" stroke-linecap="round" stroke-linejoin="round"/>
<path d="M55.8677 39.8742C55.8677 39.8742 56.5207 40.6496 57.5001 40.0375" stroke="#263238" stroke-width="0.212" stroke-miterlimit="10" stroke-linecap="round" stroke-linejoin="round"/>
<path d="M51.256 38.3642C51.256 38.3642 52.5619 37.7112 53.5006 38.4051" stroke="#263238" stroke-width="0.424" stroke-miterlimit="10" stroke-linecap="round" stroke-linejoin="round"/>
<path d="M55.6229 38.6499C55.6229 38.6499 57.1738 38.2418 57.8268 39.2212" stroke="#263238" stroke-width="0.424" stroke-miterlimit="10" stroke-linecap="round" stroke-linejoin="round"/>
<path d="M50.2356 38.6907C50.2356 38.6907 49.8275 37.6705 49.5419 38.4866C49.2562 39.3029 49.7867 40.3231 49.9908 40.7312C50.1949 41.1393 50.3582 41.3842 50.3582 41.3842L50.2356 38.6907Z" stroke="#263238" stroke-width="0.212" stroke-miterlimit="10" stroke-linecap="round" stroke-linejoin="round"/>
<path d="M36.9469 70.4371C37.414 71.2278 37.3879 72.1079 36.8886 72.4029C36.3893 72.6979 35.6057 72.2961 35.1386 71.5054C34.6715 70.7148 34.6976 69.8346 35.1969 69.5396C35.6963 69.2446 36.4798 69.6465 36.9469 70.4371Z" fill="white" stroke="#263238" stroke-width="0.212" stroke-miterlimit="10" stroke-linecap="round" stroke-linejoin="round"/>
<path d="M61.2655 40.9771C60.6854 40.7501 60.109 40.7789 60.109 40.7789" stroke="#263238" stroke-width="0.636" stroke-miterlimit="10" stroke-linecap="round" stroke-linejoin="round"/>
<path d="M56.2546 49.8315C57.6264 48.6466 59.0733 47.2433 59.8464 46.0735C61.5529 43.4917 62.3417 41.6253 61.6629 41.1802C61.5349 41.0963 61.4001 41.0299 61.2655 40.9771" stroke="#263238" stroke-width="0.424" stroke-miterlimit="10" stroke-linecap="round" stroke-linejoin="round"/>
<path d="M49.0106 39.6764C48.8135 39.8969 48.7104 40.1975 48.7482 40.5114C48.9556 42.2301 49.497 45.8763 50.5702 48.2176C50.685 48.468 50.795 48.7048 50.9005 48.9288" stroke="#263238" stroke-width="0.424" stroke-miterlimit="10" stroke-linecap="round" stroke-linejoin="round"/>
<path d="M49.8262 39.2912L49.5724 39.3475C49.3476 39.3976 49.1541 39.5157 49.0106 39.6764" stroke="#263238" stroke-width="0.636" stroke-miterlimit="10" stroke-linecap="round" stroke-linejoin="round"/>
<path d="M52.7635 57.2643C52.6157 59.9553 52.3423 63.1388 51.8392 65.1078C50.8328 69.0461 48.251 72.1964 44.8818 72.7654C41.5126 73.3342 37.7056 70.1837 37.7056 70.1837" stroke="#263238" stroke-width="0.424" stroke-miterlimit="10" stroke-linecap="round" stroke-linejoin="round"/>
<path d="M50.9005 48.9287C52.1224 51.5216 52.7317 52.3745 52.9331 52.3745C53.0528 52.3745 54.599 51.2619 56.255 49.8314" stroke="#263238" stroke-width="0.636" stroke-miterlimit="10" stroke-linecap="round" stroke-linejoin="round"/>
<path d="M52.933 52.3745C52.933 52.3745 52.911 54.5734 52.7634 57.2644" stroke="#263238" stroke-width="0.636" stroke-miterlimit="10" stroke-linecap="round" stroke-linejoin="round"/>
<path d="M47.5079 68.5869C47.5079 68.5869 44.9218 67.9164 44.3471 67.8206C43.7723 67.7249 40.1646 66.7671 39.7814 67.0225C39.3983 67.2779 36.6845 69.3532 36.4609 69.6086C36.2374 69.864 35.5989 70.9175 35.6946 71.205C35.7904 71.4923 36.3333 71.4604 36.4609 71.3008C36.5885 71.1411 37.3229 70.5664 37.3229 70.5664C37.3229 70.5664 36.7163 71.3326 36.9717 71.4602C37.2272 71.5879 37.9616 71.556 37.9616 71.556C37.9616 71.556 38.0573 71.7796 38.696 71.8753C39.3346 71.9711 39.6858 72.1626 40.3881 72.1946C41.0905 72.2265 43.8683 71.7157 43.8683 71.7157L44.9539 71.173L47.508 71.0453L47.5079 68.5869Z" fill="white" stroke="#263238" stroke-width="0.212" stroke-miterlimit="10" stroke-linecap="round" stroke-linejoin="round"/>
<path d="M37.3231 70.5664L39.0472 69.0976L40.3882 68.5549" stroke="#263238" stroke-width="0.212" stroke-miterlimit="10" stroke-linecap="round" stroke-linejoin="round"/>
<path d="M37.9615 71.5561L39.3664 70.4705L41.3778 69.8" stroke="#263238" stroke-width="0.212" stroke-miterlimit="10" stroke-linecap="round" stroke-linejoin="round"/>
<path d="M39.079 71.8436L40.6754 71.1731L42.1122 70.8856" stroke="#263238" stroke-width="0.212" stroke-miterlimit="10" stroke-linecap="round" stroke-linejoin="round"/>
<path d="M61.5153 55.5958L59.327 66.1647L47.0355 68.446L47.2683 73.0553C47.2683 73.0553 62.6325 71.8448 62.8654 71.7051C63.0982 71.5654 63.4706 71.3791 63.7035 71.0998C63.9363 70.8204 66.6832 60.5775 67.1023 57.2254C67.5213 53.8732 67.1154 51.3831 67.2951 51.1383C67.4747 50.8935 63.9829 49.264 63.9829 49.264" fill="#117D5A"/>
<path d="M61.5153 55.5958L59.327 66.1647L47.0355 68.446L47.2683 73.0553C47.2683 73.0553 62.6325 71.8448 62.8654 71.7051C63.0982 71.5654 63.4706 71.3791 63.7035 71.0998C63.9363 70.8204 66.6832 60.5775 67.1023 57.2254C67.5213 53.8732 67.1154 51.3831 67.2951 51.1383C67.4747 50.8935 63.9829 49.264 63.9829 49.264" stroke="#263238" stroke-width="0.212" stroke-miterlimit="10" stroke-linecap="round" stroke-linejoin="round"/>
<path d="M32.5077 67.7553C32.5077 67.7553 30.4417 67.0733 30.2914 67.0081C30.1409 66.943 29.2745 67.1394 28.3709 67.2686C27.4673 67.3977 25.8736 67.1476 25.9888 67.6907C26.0925 68.1799 26.6987 68.3362 27.0861 68.4006C27.4733 68.4652 27.4733 68.4652 27.4733 68.4652C27.4733 68.4652 26.2469 69.2398 25.8598 69.4335C25.4726 69.6271 24.8271 70.4661 25.3433 70.7244L25.7996 70.8166C25.7996 70.8166 25.3439 71.2723 25.3439 71.5326C25.3439 71.7929 25.7019 72.0208 25.7019 72.0208C25.7019 72.0208 25.5392 72.5741 25.6693 72.8346C25.7995 73.095 25.9298 73.2577 25.9298 73.2577C25.9298 73.2577 25.7996 73.7135 25.8972 73.9088C25.9948 74.1041 26.8411 74.2342 27.069 74.1367C27.2969 74.0391 27.6223 73.1602 27.6223 73.1602C27.6223 73.1602 29.1521 72.5091 30.1936 72.379C31.2351 72.2488 31.756 71.6629 31.756 71.6629L32.6674 71.4351C32.6674 71.4351 33.0905 71.1746 32.9278 69.6774C32.7651 68.1799 32.5077 67.7553 32.5077 67.7553Z" fill="white" stroke="#263238" stroke-width="0.212" stroke-miterlimit="10" stroke-linecap="round" stroke-linejoin="round"/>
<path d="M27.4733 68.4652L29.1195 68.8308C29.1195 68.8308 30.2262 69.5794 30.6168 69.5468C31.0074 69.5142 31.6259 69.2214 31.6259 69.2214" fill="white"/>
<path d="M27.4733 68.4652L29.1195 68.8308C29.1195 68.8308 30.2262 69.5794 30.6168 69.5468C31.0074 69.5142 31.6259 69.2214 31.6259 69.2214" stroke="#263238" stroke-width="0.212" stroke-miterlimit="10" stroke-linecap="round" stroke-linejoin="round"/>
<path d="M25.7996 70.8163C25.7996 70.8163 27.0039 71.0442 27.1992 70.7512C27.3945 70.4583 26.1902 69.6771 26.1902 69.6771" fill="white"/>
<path d="M25.7996 70.8163C25.7996 70.8163 27.0039 71.0442 27.1992 70.7512C27.3945 70.4583 26.1902 69.6771 26.1902 69.6771" stroke="#263238" stroke-width="0.212" stroke-miterlimit="10" stroke-linecap="round" stroke-linejoin="round"/>
<path d="M26.9388 70.2631L27.8176 69.7424" stroke="#263238" stroke-width="0.212" stroke-miterlimit="10" stroke-linecap="round" stroke-linejoin="round"/>
<path d="M25.7018 72.0207C25.7018 72.0207 26.9062 72.3138 27.199 72.1185C27.4921 71.9232 26.7433 71.3047 26.5156 71.2071C26.2877 71.1094 26.2877 71.1094 26.2877 71.1094" fill="white"/>
<path d="M25.7018 72.0207C25.7018 72.0207 26.9062 72.3138 27.199 72.1185C27.4921 71.9232 26.7433 71.3047 26.5156 71.2071C26.2877 71.1094 26.2877 71.1094 26.2877 71.1094" stroke="#263238" stroke-width="0.212" stroke-miterlimit="10" stroke-linecap="round" stroke-linejoin="round"/>
<path d="M27.0038 71.5324L27.4921 71.2395L28.0129 71.0768" fill="white"/>
<path d="M27.0038 71.5324L27.4921 71.2395L28.0129 71.0768" stroke="#263238" stroke-width="0.212" stroke-miterlimit="10" stroke-linecap="round" stroke-linejoin="round"/>
<path d="M25.9298 73.2575C25.9298 73.2575 26.8086 73.518 27.0039 73.4528C27.1992 73.3877 27.492 73.0622 27.069 72.802C26.646 72.5417 26.353 72.3788 26.353 72.3788" fill="white"/>
<path d="M25.9298 73.2575C25.9298 73.2575 26.8086 73.518 27.0039 73.4528C27.1992 73.3877 27.492 73.0622 27.069 72.802C26.646 72.5417 26.353 72.3788 26.353 72.3788" stroke="#263238" stroke-width="0.212" stroke-miterlimit="10" stroke-linecap="round" stroke-linejoin="round"/>
<path d="M27.0038 73.4528C27.0038 73.4528 27.4594 73.8108 27.0689 74.1363L27.0038 73.4528Z" fill="white"/>
<path d="M27.0038 73.4528C27.0038 73.4528 27.4594 73.8108 27.0689 74.1363" stroke="#263238" stroke-width="0.212" stroke-miterlimit="10" stroke-linecap="round" stroke-linejoin="round"/>
<path d="M37.4613 73.9783C36.3727 72.2042 35.3645 71.1557 35.3645 71.1557C35.3645 71.1557 34.921 69.0992 34.5984 68.3332C34.2759 67.5671 33.8959 66.5564 33.8959 66.5564C33.8959 66.5564 33.8136 66.3949 33.7522 66.205C33.6851 65.9881 35.3017 64.8799 35.5612 64.846C36.0244 64.7857 36.0469 64.7069 36.2839 64.5362C37.0522 63.9831 36.8387 61.9997 36.8504 61.7945C36.8621 61.5893 37.3135 61.0369 37.0407 60.546C36.7678 60.0551 36.3109 60.1804 36.082 60.0105C35.4444 59.5373 35.3811 58.6873 35.2911 57.963C35.1071 56.4825 33.943 55.0335 32.5284 54.5453C32.5284 54.5453 30.6021 53.8808 28.0403 54.772C25.4785 55.6631 24.0897 57.6511 23.75 59.5722C23.4103 61.4933 24.4686 63.9574 26.4045 64.817C27.4983 65.3027 29.591 65.4665 29.591 65.4665C29.591 65.4665 29.3098 65.764 29.3622 65.9476C29.3932 66.0562 29.4879 66.1546 29.5606 66.2178C29.2211 66.536 28.403 66.9891 27.7437 68.011C26.9373 69.2609 26.4534 73.0511 26.2115 75.5915C25.9696 78.1318 26.4131 79.3011 26.4131 79.3011C26.4131 79.3011 29.3566 77.3656 31.9774 76.4785C34.5984 75.5915 38.55 77.164 38.55 77.164C38.55 77.164 38.55 75.7526 37.4613 73.9783Z" fill="white" stroke="#263238" stroke-width="0.212" stroke-miterlimit="10" stroke-linecap="round" stroke-linejoin="round"/>
<path d="M32.8083 65.3776C32.9585 65.3962 33.1207 65.4055 33.2949 65.4026" stroke="#263238" stroke-width="0.212" stroke-miterlimit="10" stroke-linecap="round" stroke-linejoin="round"/>
<path d="M31.2886 64.6609C31.2886 64.6609 31.5521 64.9907 32.1274 65.2107" stroke="#263238" stroke-width="0.212" stroke-miterlimit="10" stroke-linecap="round" stroke-linejoin="round"/>
<path d="M38.5902 76.0751C38.5902 76.0751 36.1305 74.9461 33.3081 75.309C30.4855 75.6719 27.9857 76.8815 26.8162 77.7284C25.6469 78.5751 25.8485 79.7847 26.292 80.8735C26.7356 81.9622 27.8327 83.6466 30.252 84.0901C32.6714 84.5337 35.5259 83.4945 36.4532 82.6881C37.3806 81.8817 39.1952 79.6639 39.1952 78.0108C39.1952 76.3573 38.5902 76.0751 38.5902 76.0751Z" fill="#117D5A" stroke="#263238" stroke-width="0.212" stroke-miterlimit="10" stroke-linecap="round" stroke-linejoin="round"/>
<path d="M40.8483 76.3976C40.8483 76.3976 43.308 75.0268 44.9611 76.0348C46.6142 77.0428 44.7998 80.9137 44.7998 80.9137C44.7998 80.9137 41.4934 78.0104 40.8483 76.3976Z" fill="white" stroke="#263238" stroke-width="0.212" stroke-miterlimit="10" stroke-linecap="round" stroke-linejoin="round"/>
<path d="M37.4209 82.8492C37.4209 82.8492 39.1806 83.6651 40.7288 83.6651C42.2769 83.6651 44.0361 83.1725 44.0361 83.1725L38.7583 80.0057L37.4209 82.8492Z" fill="white" stroke="#263238" stroke-width="0.212" stroke-miterlimit="10" stroke-linecap="round" stroke-linejoin="round"/>
<path d="M31.6951 77.8088C31.6951 77.8088 29.9613 79.1394 29.9613 81.2765C29.9613 83.4137 35.8484 83.9378 37.4209 82.8492C38.9933 81.7605 39.3564 81.1152 39.3564 81.1152C39.3564 81.1152 41.9774 82.8492 42.9854 83.1716C43.9934 83.4941 45.9289 83.6957 46.7353 83.4538C47.5417 83.2119 48.3481 82.6071 48.5096 82.1636C48.6709 81.72 48.6709 81.1152 48.6709 81.1152C48.6709 81.1152 48.9934 80.2685 48.5499 80.0669C48.1064 79.8653 47.9451 79.9056 46.8968 80.2282C45.8485 80.5508 44.6387 80.5508 44.6387 80.5508C44.6387 80.5508 43.4291 78.6152 42.784 77.5266C42.1388 76.4379 41.0097 75.5507 39.3566 75.1072C37.7031 74.6637 34.1144 75.5509 31.6951 77.8088Z" fill="white" stroke="#263238" stroke-width="0.212" stroke-miterlimit="10" stroke-linecap="round" stroke-linejoin="round"/>
<path d="M40.259 78.7844C40.2911 78.619 40.3138 78.4539 40.3238 78.2927" stroke="#263238" stroke-width="0.212" stroke-miterlimit="10" stroke-linecap="round" stroke-linejoin="round"/>
<path d="M39.356 81.1152C39.356 81.1152 39.8492 80.2633 40.1336 79.2949" stroke="#263238" stroke-width="0.212" stroke-miterlimit="10" stroke-linecap="round" stroke-linejoin="round"/>
<path d="M48.6705 81.1152C48.6705 81.1152 48.1463 80.9539 47.8237 81.1555" stroke="#263238" stroke-width="0.212" stroke-miterlimit="10" stroke-linecap="round" stroke-linejoin="round"/>
<path d="M48.4969 81.8888C48.4969 81.8888 48.253 81.7668 47.9358 81.8645" stroke="#263238" stroke-width="0.212" stroke-miterlimit="10" stroke-linecap="round" stroke-linejoin="round"/>
<path d="M48.1554 82.5962C48.1554 82.5962 47.9358 82.4986 47.7162 82.5229" stroke="#263238" stroke-width="0.212" stroke-miterlimit="10" stroke-linecap="round" stroke-linejoin="round"/>
<path d="M30.1629 66.9623C30.1629 66.9623 29.1146 66.7607 28.3888 68.2525C27.663 69.7443 28.3485 72.0428 28.5501 73.0911C28.7517 74.1394 30.2435 78.2925 30.5663 79.0185C30.889 79.7444 31.6549 80.9943 31.6549 80.9943C31.6549 80.9943 32.5419 83.6153 32.7839 83.8976C33.0258 84.1798 33.429 84.1798 33.429 84.1798C33.429 84.1798 33.6709 84.3008 33.8725 84.3411C34.0741 84.3814 34.5983 84.2604 34.5983 84.2604C34.5983 84.2604 35.1224 84.6636 35.3643 84.4217C35.6063 84.1798 35.5256 83.9379 35.4853 83.6556C35.445 83.3734 35.4047 82.8896 35.4047 82.8896C35.4047 82.8896 35.7675 83.4944 35.8079 83.7363C35.8482 83.9782 36.3723 84.0992 36.4127 83.7363C36.453 83.3734 36.6143 82.9702 36.2514 82.3251C35.8885 81.68 35.6063 80.8736 34.8805 80.2283C34.1547 79.5831 33.9935 79.3412 33.9128 79.2203C33.8322 79.0993 32.7435 73.2525 32.7435 73.2525C32.7435 73.2525 32.9855 69.7848 32.9048 68.8172" fill="white"/>
<path d="M30.1629 66.9623C30.1629 66.9623 29.1146 66.7607 28.3888 68.2525C27.663 69.7443 28.3485 72.0428 28.5501 73.0911C28.7517 74.1394 30.2435 78.2925 30.5663 79.0185C30.889 79.7444 31.6549 80.9943 31.6549 80.9943C31.6549 80.9943 32.5419 83.6153 32.7839 83.8976C33.0258 84.1798 33.429 84.1798 33.429 84.1798C33.429 84.1798 33.6709 84.3008 33.8725 84.3411C34.0741 84.3814 34.5983 84.2604 34.5983 84.2604C34.5983 84.2604 35.1224 84.6636 35.3643 84.4217C35.6063 84.1798 35.5256 83.9379 35.4853 83.6556C35.445 83.3734 35.4047 82.8896 35.4047 82.8896C35.4047 82.8896 35.7675 83.4944 35.8079 83.7363C35.8482 83.9782 36.3723 84.0992 36.4127 83.7363C36.453 83.3734 36.6143 82.9702 36.2514 82.3251C35.8885 81.68 35.6063 80.8736 34.8805 80.2283C34.1547 79.5831 33.9935 79.3412 33.9128 79.2203C33.8322 79.0993 32.7435 73.2525 32.7435 73.2525C32.7435 73.2525 32.9855 69.7848 32.9048 68.8172" stroke="#263238" stroke-width="0.212" stroke-miterlimit="10" stroke-linecap="round" stroke-linejoin="round"/>
<path d="M34.5982 84.2603C34.5982 84.2603 34.2756 83.5749 34.1547 83.1717" stroke="#263238" stroke-width="0.212" stroke-miterlimit="10" stroke-linecap="round" stroke-linejoin="round"/>
<path d="M33.4288 84.1797C33.4288 84.1797 33.2272 83.6959 33.1869 83.1314" stroke="#263238" stroke-width="0.212" stroke-miterlimit="10" stroke-linecap="round" stroke-linejoin="round"/>
<path d="M35.0555 59.6828C35.1377 59.8967 35.1275 60.0997 35.0324 60.1362C34.9374 60.1728 34.7936 60.0291 34.7113 59.8153C34.6291 59.6015 34.6393 59.3986 34.7344 59.3619C34.8294 59.3253 34.973 59.469 35.0555 59.6828Z" fill="#263238"/>
<path d="M34.0844 58.781C34.0844 58.781 34.2915 58.1141 34.914 58.32" stroke="#263238" stroke-width="0.212" stroke-miterlimit="10" stroke-linecap="round" stroke-linejoin="round"/>
<path d="M36.051 62.2842C36.051 62.2842 36.4198 62.4072 36.6349 62.2228" stroke="#263238" stroke-width="0.212" stroke-miterlimit="10" stroke-linecap="round" stroke-linejoin="round"/>
<path d="M32.7235 55.3076C32.7235 55.3076 33.1087 55.3818 33.2874 55.5605L33.4966 55.8161L33.7065 55.8883L33.6618 55.2182L33.676 55.1906C33.3259 54.9106 32.9384 54.6865 32.5285 54.5452C32.5285 54.5452 30.6022 53.8806 28.0404 54.7718C25.4787 55.663 24.0898 57.6509 23.7501 59.572C23.4105 61.4932 24.4687 63.9572 26.4046 64.8169C26.8954 65.0348 27.5874 65.1878 28.2012 65.2904L28.4301 65.2523C28.4301 65.2523 28.7556 65.2523 28.8252 65.2523C28.8949 65.2523 29.4295 65.1592 29.4295 65.1592L28.8904 64.8723C29.074 64.8986 29.5459 64.715 29.5459 64.715L29.2576 64.5053L29.6246 64.4003L29.205 64.1904L29.7295 64.0594L29.2313 63.8758L30.0705 63.7709C30.0705 63.7709 29.2203 63.2766 28.9647 62.9978C28.7091 62.7189 29.7781 60.5575 29.7781 60.5575C29.7781 60.5575 30.4056 60.9062 30.4987 60.9294C30.5917 60.9526 30.2895 60.2787 30.2895 60.2787L30.9634 60.4646C30.9634 60.4646 30.7543 60.3019 30.6614 60.209C30.5685 60.116 30.4755 59.8604 30.4058 59.7211C30.3361 59.5816 29.9875 58.9076 29.9875 58.9076L30.4755 58.9541C30.4755 58.9541 30.2431 58.7914 30.0804 58.6054C29.9176 58.4195 29.1946 58.0777 29.1946 58.0777L29.8201 58.033L29.1053 57.6309L30.6241 57.4075C30.6241 57.4075 30.2667 57.1395 29.7753 56.8715C29.2839 56.6034 28.7925 56.6927 28.7925 56.6927L28.9991 56.2958C29.4212 55.9711 30.4279 55.7438 30.4279 55.7438H29.4862L30.222 55.4864C30.222 55.4864 30.8922 55.3971 31.2943 55.3523C31.6964 55.3076 33.0813 55.8437 33.0813 55.8437L32.7235 55.3076Z" fill="#117D5A" stroke="#263238" stroke-width="0.212" stroke-miterlimit="10" stroke-linecap="round" stroke-linejoin="round"/>
<path d="M30.2412 61.0623C30.2412 61.0623 29.4512 59.9562 28.5426 60.1932C27.6339 60.4303 28.108 62.287 28.5426 62.9191C28.9771 63.5513 30.1228 63.5117 30.4389 63.1956C30.7549 62.8795 30.7549 62.8795 30.7549 62.8795" fill="white"/>
<path d="M30.2412 61.0623C30.2412 61.0623 29.4512 59.9562 28.5426 60.1932C27.6339 60.4303 28.108 62.287 28.5426 62.9191C28.9771 63.5513 30.1228 63.5117 30.4389 63.1956C30.7549 62.8795 30.7549 62.8795 30.7549 62.8795" stroke="#263238" stroke-width="0.212" stroke-miterlimit="10" stroke-linecap="round" stroke-linejoin="round"/>
</g>
<defs>
<clipPath id="clip0_180_1441">
<rect width="90" height="90" fill="white"/>
</clipPath>
</defs>
</svg>
